0
SECTION
2
ENTITIES
0
LINE
8
SHEET
10
0.00000
20
0.00000
30
0.0
11
2440.00000
21
0.00000
31
0.0
0
LINE
8
SHEET
10
2440.00000
20
0.00000
30
0.0
11
2440.00000
21
1220.00000
31
0.0
0
LINE
8
SHEET
10
2440.00000
20
1220.00000
30
0.0
11
0.00000
21
1220.00000
31
0.0
0
LINE
8
SHEET
10
0.00000
20
1220.00000
30
0.0
11
0.00000
21
0.00000
31
0.0
0
LINE
8
CUT_OUTER
10
30.02672
20
706.00000
30
0.0
11
10.00000
21
706.00000
31
0.0
0
ARC
8
CUT_OUTER
10
30.02672
20
691.00000
30
0.0
40
15.00000
50
53.31389
51
90.00000
0
LINE
8
CUT_OUTER
10
235.00000
20
557.00000
30
0.0
11
38.98818
21
703.02881
31
0.0
0
LINE
8
CUT_OUTER
10
235.00000
20
517.00000
30
0.0
11
235.00000
21
557.00000
31
0.0
0
LINE
8
CUT_OUTER
10
237.50000
20
517.00000
30
0.0
11
235.00000
21
517.00000
31
0.0
0
LINE
8
CUT_OUTER
10
237.50000
20
517.00000
30
0.0
11
240.00000
21
514.50000
31
0.0
0
LINE
8
CUT_OUTER
10
240.00000
20
484.50000
30
0.0
11
240.00000
21
514.50000
31
0.0
0
LINE
8
CUT_OUTER
10
240.00000
20
484.50000
30
0.0
11
237.50000
21
482.00000
31
0.0
0
LINE
8
CUT_OUTER
10
235.00000
20
482.00000
30
0.0
11
237.50000
21
482.00000
31
0.0
0
LINE
8
CUT_OUTER
10
235.00000
20
437.00000
30
0.0
11
235.00000
21
482.00000
31
0.0
0
LINE
8
CUT_OUTER
10
95.00000
20
437.00000
30
0.0
11
235.00000
21
437.00000
31
0.0
0
LINE
8
CUT_OUTER
10
95.00000
20
434.50000
30
0.0
11
95.00000
21
437.00000
31
0.0
0
LINE
8
CUT_OUTER
10
95.00000
20
434.50000
30
0.0
11
92.50000
21
432.00000
31
0.0
0
LINE
8
CUT_OUTER
10
47.50000
20
432.00000
30
0.0
11
92.50000
21
432.00000
31
0.0
0
LINE
8
CUT_OUTER
10
47.50000
20
432.00000
30
0.0
11
45.00000
21
434.50000
31
0.0
0
LINE
8
CUT_OUTER
10
45.00000
20
437.00000
30
0.0
11
45.00000
21
434.50000
31
0.0
0
LINE
8
CUT_OUTER
10
10.00000
20
437.00000
30
0.0
11
45.00000
21
437.00000
31
0.0
0
LINE
8
CUT_OUTER
10
10.00000
20
706.00000
30
0.0
11
10.00000
21
437.00000
31
0.0
0
ARC
8
CUT_INNER
10
122.50000
20
513.00000
30
0.0
40
25.00000
50
270.00000
51
180.00000
0
ARC
8
CUT_INNER
10
122.50000
20
513.00000
30
0.0
40
25.00000
50
180.00000
51
270.00000
0
LINE
8
CUT_OUTER
10
2421.00000
20
1014.00000
30
0.0
11
2182.75000
21
1014.00000
31
0.0
0
LINE
8
CUT_OUTER
10
2421.00000
20
1014.00000
30
0.0
11
2426.00000
21
1009.00000
31
0.0
0
LINE
8
CUT_OUTER
10
2426.00000
20
322.00000
30
0.0
11
2426.00000
21
1009.00000
31
0.0
0
LINE
8
CUT_OUTER
10
2426.00000
20
322.00000
30
0.0
11
2363.50000
21
322.00000
31
0.0
0
LINE
8
CUT_OUTER
10
2363.50000
20
322.00000
30
0.0
11
2363.50000
21
314.00000
31
0.0
0
LINE
8
CUT_OUTER
10
1938.50000
20
314.00000
30
0.0
11
2363.50000
21
314.00000
31
0.0
0
LINE
8
CUT_OUTER
10
1938.50000
20
314.00000
30
0.0
11
1938.50000
21
322.00000
31
0.0
0
LINE
8
CUT_OUTER
10
1938.50000
20
322.00000
30
0.0
11
1876.00000
21
322.00000
31
0.0
0
LINE
8
CUT_OUTER
10
1876.00000
20
1009.00000
30
0.0
11
1876.00000
21
322.00000
31
0.0
0
LINE
8
CUT_OUTER
10
1876.00000
20
1009.00000
30
0.0
11
1881.00000
21
1014.00000
31
0.0
0
LINE
8
CUT_OUTER
10
2119.25000
20
1014.00000
30
0.0
11
1881.00000
21
1014.00000
31
0.0
0
LINE
8
CUT_OUTER
10
2119.25000
20
1014.00000
30
0.0
11
2119.25000
21
1006.00000
31
0.0
0
LINE
8
CUT_OUTER
10
2119.25000
20
1006.00000
30
0.0
11
2182.75000
21
1006.00000
31
0.0
0
LINE
8
CUT_OUTER
10
2182.75000
20
1006.00000
30
0.0
11
2182.75000
21
1014.00000
31
0.0
0
LINE
8
CUT_INNER
10
2101.50000
20
988.50000
30
0.0
11
2101.50000
21
994.50000
31
0.0
0
LINE
8
CUT_INNER
10
2101.50000
20
994.50000
30
0.0
11
2050.50000
21
994.50000
31
0.0
0
LINE
8
CUT_INNER
10
2050.50000
20
994.50000
30
0.0
11
2050.50000
21
988.50000
31
0.0
0
LINE
8
CUT_INNER
10
2050.50000
20
988.50000
30
0.0
11
2101.50000
21
988.50000
31
0.0
0
LINE
8
CUT_INNER
10
2251.50000
20
988.50000
30
0.0
11
2251.50000
21
994.50000
31
0.0
0
LINE
8
CUT_INNER
10
2251.50000
20
994.50000
30
0.0
11
2200.50000
21
994.50000
31
0.0
0
LINE
8
CUT_INNER
10
2200.50000
20
994.50000
30
0.0
11
2200.50000
21
988.50000
31
0.0
0
LINE
8
CUT_INNER
10
2200.50000
20
988.50000
30
0.0
11
2251.50000
21
988.50000
31
0.0
0
CIRCLE
8
CUT_INNER
10
2251.00000
20
384.00000
30
0.0
40
22.50000
0
LINE
8
CUT_INNER
10
2176.50000
20
433.50000
30
0.0
11
2176.50000
21
439.50000
31
0.0
0
LINE
8
CUT_INNER
10
2176.50000
20
439.50000
30
0.0
11
2125.50000
21
439.50000
31
0.0
0
LINE
8
CUT_INNER
10
2125.50000
20
439.50000
30
0.0
11
2125.50000
21
433.50000
31
0.0
0
LINE
8
CUT_INNER
10
2125.50000
20
433.50000
30
0.0
11
2176.50000
21
433.50000
31
0.0
0
LINE
8
CUT_INNER
10
1944.00000
20
464.00000
30
0.0
11
1944.00000
21
515.00000
31
0.0
0
LINE
8
CUT_INNER
10
1944.00000
20
515.00000
30
0.0
11
1938.00000
21
515.00000
31
0.0
0
LINE
8
CUT_INNER
10
1938.00000
20
515.00000
30
0.0
11
1938.00000
21
464.00000
31
0.0
0
LINE
8
CUT_INNER
10
1938.00000
20
464.00000
30
0.0
11
1944.00000
21
464.00000
31
0.0
0
LINE
8
CUT_INNER
10
2364.00000
20
813.00000
30
0.0
11
2364.00000
21
864.00000
31
0.0
0
LINE
8
CUT_INNER
10
2364.00000
20
864.00000
30
0.0
11
2358.00000
21
864.00000
31
0.0
0
LINE
8
CUT_INNER
10
2358.00000
20
864.00000
30
0.0
11
2358.00000
21
813.00000
31
0.0
0
LINE
8
CUT_INNER
10
2358.00000
20
813.00000
30
0.0
11
2364.00000
21
813.00000
31
0.0
0
LINE
8
CUT_INNER
10
2364.00000
20
464.00000
30
0.0
11
2364.00000
21
515.00000
31
0.0
0
LINE
8
CUT_INNER
10
2364.00000
20
515.00000
30
0.0
11
2358.00000
21
515.00000
31
0.0
0
LINE
8
CUT_INNER
10
2358.00000
20
515.00000
30
0.0
11
2358.00000
21
464.00000
31
0.0
0
LINE
8
CUT_INNER
10
2358.00000
20
464.00000
30
0.0
11
2364.00000
21
464.00000
31
0.0
0
LINE
8
CUT_INNER
10
1944.00000
20
813.00000
30
0.0
11
1944.00000
21
864.00000
31
0.0
0
LINE
8
CUT_INNER
10
1944.00000
20
864.00000
30
0.0
11
1938.00000
21
864.00000
31
0.0
0
LINE
8
CUT_INNER
10
1938.00000
20
864.00000
30
0.0
11
1938.00000
21
813.00000
31
0.0
0
LINE
8
CUT_INNER
10
1938.00000
20
813.00000
30
0.0
11
1944.00000
21
813.00000
31
0.0
0
CIRCLE
8
CUT_INNER
10
2401.00000
20
964.00000
30
0.0
40
7.00000
0
CIRCLE
8
CUT_INNER
10
1901.00000
20
439.00000
30
0.0
40
7.00000
0
CIRCLE
8
CUT_INNER
10
1901.00000
20
964.00000
30
0.0
40
7.00000
0
CIRCLE
8
CUT_INNER
10
2401.00000
20
439.00000
30
0.0
40
7.00000
0
LINE
8
CUT_OUTER
10
144.00000
20
110.00000
30
0.0
11
144.00000
21
15.00000
31
0.0
0
LINE
8
CUT_OUTER
10
144.00000
20
110.00000
30
0.0
11
206.50000
21
110.00000
31
0.0
0
LINE
8
CUT_OUTER
10
206.50000
20
15.00000
30
0.0
11
206.50000
21
110.00000
31
0.0
0
LINE
8
CUT_OUTER
10
206.50000
20
15.00000
30
0.0
11
201.50000
21
10.00000
31
0.0
0
LINE
8
CUT_OUTER
10
149.00000
20
10.00000
30
0.0
11
201.50000
21
10.00000
31
0.0
0
LINE
8
CUT_OUTER
10
149.00000
20
10.00000
30
0.0
11
144.00000
21
15.00000
31
0.0
0
ARC
8
CUT_INNER
10
191.25000
20
20.00000
30
0.0
40
2.50000
50
0.00000
51
90.00000
0
ARC
8
CUT_INNER
10
191.25000
20
20.00000
30
0.0
40
2.50000
50
90.00000
51
0.00000
0
ARC
8
CUT_INNER
10
159.25000
20
89.00000
30
0.0
40
2.50000
50
0.00000
51
90.00000
0
ARC
8
CUT_INNER
10
159.25000
20
89.00000
30
0.0
40
2.50000
50
90.00000
51
0.00000
0
ARC
8
CUT_INNER
10
191.25000
20
89.00000
30
0.0
40
2.50000
50
0.00000
51
90.00000
0
ARC
8
CUT_INNER
10
191.25000
20
89.00000
30
0.0
40
2.50000
50
90.00000
51
0.00000
0
ARC
8
CUT_INNER
10
159.25000
20
20.00000
30
0.0
40
2.50000
50
0.00000
51
90.00000
0
ARC
8
CUT_INNER
10
159.25000
20
20.00000
30
0.0
40
2.50000
50
90.00000
51
0.00000
0
ARC
8
CUT_INNER
10
175.25000
20
20.00000
30
0.0
40
2.50000
50
0.00000
51
90.00000
0
ARC
8
CUT_INNER
10
175.25000
20
20.00000
30
0.0
40
2.50000
50
90.00000
51
0.00000
0
ARC
8
CUT_INNER
10
175.25000
20
89.00000
30
0.0
40
2.50000
50
0.00000
51
90.00000
0
ARC
8
CUT_INNER
10
175.25000
20
89.00000
30
0.0
40
2.50000
50
90.00000
51
0.00000
0
LINE
8
CUT_OUTER
10
1252.00000
20
110.00000
30
0.0
11
1252.00000
21
15.00000
31
0.0
0
LINE
8
CUT_OUTER
10
1252.00000
20
110.00000
30
0.0
11
1314.50000
21
110.00000
31
0.0
0
LINE
8
CUT_OUTER
10
1314.50000
20
15.00000
30
0.0
11
1314.50000
21
110.00000
31
0.0
0
LINE
8
CUT_OUTER
10
1314.50000
20
15.00000
30
0.0
11
1309.50000
21
10.00000
31
0.0
0
LINE
8
CUT_OUTER
10
1257.00000
20
10.00000
30
0.0
11
1309.50000
21
10.00000
31
0.0
0
LINE
8
CUT_OUTER
10
1257.00000
20
10.00000
30
0.0
11
1252.00000
21
15.00000
31
0.0
0
ARC
8
CUT_INNER
10
1299.25000
20
20.00000
30
0.0
40
2.50000
50
0.00000
51
90.00000
0
ARC
8
CUT_INNER
10
1299.25000
20
20.00000
30
0.0
40
2.50000
50
90.00000
51
0.00000
0
ARC
8
CUT_INNER
10
1267.25000
20
89.00000
30
0.0
40
2.50000
50
0.00000
51
90.00000
0
ARC
8
CUT_INNER
10
1267.25000
20
89.00000
30
0.0
40
2.50000
50
90.00000
51
0.00000
0
ARC
8
CUT_INNER
10
1299.25000
20
89.00000
30
0.0
40
2.50000
50
0.00000
51
90.00000
0
ARC
8
CUT_INNER
10
1299.25000
20
89.00000
30
0.0
40
2.50000
50
90.00000
51
0.00000
0
ARC
8
CUT_INNER
10
1267.25000
20
20.00000
30
0.0
40
2.50000
50
0.00000
51
90.00000
0
ARC
8
CUT_INNER
10
1267.25000
20
20.00000
30
0.0
40
2.50000
50
90.00000
51
0.00000
0
ARC
8
CUT_INNER
10
1283.25000
20
20.00000
30
0.0
40
2.50000
50
0.00000
51
90.00000
0
ARC
8
CUT_INNER
10
1283.25000
20
20.00000
30
0.0
40
2.50000
50
90.00000
51
0.00000
0
ARC
8
CUT_INNER
10
1283.25000
20
89.00000
30
0.0
40
2.50000
50
0.00000
51
90.00000
0
ARC
8
CUT_INNER
10
1283.25000
20
89.00000
30
0.0
40
2.50000
50
90.00000
51
0.00000
0
LINE
8
CUT_OUTER
10
215.00000
20
620.00000
30
0.0
11
260.00000
21
620.00000
31
0.0
0
ARC
8
CUT_OUTER
10
215.00000
20
635.00000
30
0.0
40
15.00000
50
233.13010
51
270.00000
0
LINE
8
CUT_OUTER
10
16.00000
20
765.50000
30
0.0
11
206.00000
21
623.00000
31
0.0
0
ARC
8
CUT_OUTER
10
25.00000
20
777.50000
30
0.0
40
15.00000
50
180.00000
51
233.13010
0
LINE
8
CUT_OUTER
10
10.00000
20
820.00000
30
0.0
11
10.00000
21
777.50000
31
0.0
0
LINE
8
CUT_OUTER
10
210.00000
20
820.00000
30
0.0
11
10.00000
21
820.00000
31
0.0
0
LINE
8
CUT_OUTER
10
210.00000
20
820.00000
30
0.0
11
210.00000
21
816.00000
31
0.0
0
LINE
8
CUT_OUTER
10
210.00000
20
816.00000
30
0.0
11
261.00000
21
816.00000
31
0.0
0
LINE
8
CUT_OUTER
10
261.00000
20
816.00000
30
0.0
11
261.00000
21
820.00000
31
0.0
0
LINE
8
CUT_OUTER
10
511.00000
20
820.00000
30
0.0
11
261.00000
21
820.00000
31
0.0
0
LINE
8
CUT_OUTER
10
511.00000
20
820.00000
30
0.0
11
511.00000
21
816.00000
31
0.0
0
LINE
8
CUT_OUTER
10
511.00000
20
816.00000
30
0.0
11
562.00000
21
816.00000
31
0.0
0
LINE
8
CUT_OUTER
10
562.00000
20
816.00000
30
0.0
11
562.00000
21
820.00000
31
0.0
0
LINE
8
CUT_OUTER
10
835.00000
20
820.00000
30
0.0
11
562.00000
21
820.00000
31
0.0
0
LINE
8
CUT_OUTER
10
835.00000
20
920.00000
30
0.0
11
835.00000
21
820.00000
31
0.0
0
LINE
8
CUT_OUTER
10
947.50000
20
920.00000
30
0.0
11
835.00000
21
920.00000
31
0.0
0
LINE
8
CUT_OUTER
10
947.50000
20
927.00000
30
0.0
11
947.50000
21
920.00000
31
0.0
0
LINE
8
CUT_OUTER
10
947.50000
20
927.00000
30
0.0
11
950.50000
21
930.00000
31
0.0
0
LINE
8
CUT_OUTER
10
994.50000
20
930.00000
30
0.0
11
950.50000
21
930.00000
31
0.0
0
LINE
8
CUT_OUTER
10
994.50000
20
930.00000
30
0.0
11
997.50000
21
927.00000
31
0.0
0
LINE
8
CUT_OUTER
10
997.50000
20
920.00000
30
0.0
11
997.50000
21
927.00000
31
0.0
0
LINE
8
CUT_OUTER
10
1110.00000
20
920.00000
30
0.0
11
997.50000
21
920.00000
31
0.0
0
LINE
8
CUT_OUTER
10
1110.00000
20
900.00000
30
0.0
11
1110.00000
21
920.00000
31
0.0
0
ARC
8
CUT_OUTER
10
1095.00000
20
900.00000
30
0.0
40
15.00000
50
323.13010
51
0.00000
0
LINE
8
CUT_OUTER
10
960.00000
20
695.00000
30
0.0
11
1107.00000
21
891.00000
31
0.0
0
LINE
8
CUT_OUTER
10
960.00000
20
622.00000
30
0.0
11
960.00000
21
695.00000
31
0.0
0
LINE
8
CUT_OUTER
10
958.50000
20
622.00000
30
0.0
11
960.00000
21
622.00000
31
0.0
0
LINE
8
CUT_OUTER
10
958.50000
20
582.00000
30
0.0
11
958.50000
21
622.00000
31
0.0
0
LINE
8
CUT_OUTER
10
960.00000
20
582.00000
30
0.0
11
958.50000
21
582.00000
31
0.0
0
LINE
8
CUT_OUTER
10
960.00000
20
372.00000
30
0.0
11
960.00000
21
582.00000
31
0.0
0
LINE
8
CUT_OUTER
10
958.50000
20
372.00000
30
0.0
11
960.00000
21
372.00000
31
0.0
0
LINE
8
CUT_OUTER
10
958.50000
20
332.00000
30
0.0
11
958.50000
21
372.00000
31
0.0
0
LINE
8
CUT_OUTER
10
960.00000
20
332.00000
30
0.0
11
958.50000
21
332.00000
31
0.0
0
LINE
8
CUT_OUTER
10
960.00000
20
122.00000
30
0.0
11
960.00000
21
332.00000
31
0.0
0
LINE
8
CUT_OUTER
10
958.50000
20
122.00000
30
0.0
11
960.00000
21
122.00000
31
0.0
0
LINE
8
CUT_OUTER
10
958.50000
20
82.00000
30
0.0
11
958.50000
21
122.00000
31
0.0
0
LINE
8
CUT_OUTER
10
960.00000
20
82.00000
30
0.0
11
958.50000
21
82.00000
31
0.0
0
LINE
8
CUT_OUTER
10
960.00000
20
18.00000
30
0.0
11
960.00000
21
82.00000
31
0.0
0
LINE
8
CUT_OUTER
10
809.50000
20
18.00000
30
0.0
11
960.00000
21
18.00000
31
0.0
0
LINE
8
CUT_OUTER
10
809.50000
20
13.00000
30
0.0
11
809.50000
21
18.00000
31
0.0
0
LINE
8
CUT_OUTER
10
809.50000
20
13.00000
30
0.0
11
806.50000
21
10.00000
31
0.0
0
LINE
8
CUT_OUTER
10
762.50000
20
10.00000
30
0.0
11
806.50000
21
10.00000
31
0.0
0
LINE
8
CUT_OUTER
10
762.50000
20
10.00000
30
0.0
11
759.50000
21
13.00000
31
0.0
0
LINE
8
CUT_OUTER
10
759.50000
20
13.00000
30
0.0
11
759.50000
21
18.00000
31
0.0
0
LINE
8
CUT_OUTER
10
460.50000
20
18.00000
30
0.0
11
759.50000
21
18.00000
31
0.0
0
LINE
8
CUT_OUTER
10
460.50000
20
13.00000
30
0.0
11
460.50000
21
18.00000
31
0.0
0
LINE
8
CUT_OUTER
10
460.50000
20
13.00000
30
0.0
11
457.50000
21
10.00000
31
0.0
0
LINE
8
CUT_OUTER
10
413.50000
20
10.00000
30
0.0
11
457.50000
21
10.00000
31
0.0
0
LINE
8
CUT_OUTER
10
413.50000
20
10.00000
30
0.0
11
410.50000
21
13.00000
31
0.0
0
LINE
8
CUT_OUTER
10
410.50000
20
13.00000
30
0.0
11
410.50000
21
18.00000
31
0.0
0
LINE
8
CUT_OUTER
10
260.00000
20
18.00000
30
0.0
11
410.50000
21
18.00000
31
0.0
0
LINE
8
CUT_OUTER
10
260.00000
20
620.00000
30
0.0
11
260.00000
21
18.00000
31
0.0
0
LINE
8
CUT_INNER
10
840.50000
20
268.50000
30
0.0
11
834.50000
21
268.50000
31
0.0
0
LINE
8
CUT_INNER
10
834.50000
20
268.50000
30
0.0
11
834.50000
21
217.50000
31
0.0
0
LINE
8
CUT_INNER
10
834.50000
20
217.50000
30
0.0
11
840.50000
21
217.50000
31
0.0
0
LINE
8
CUT_INNER
10
840.50000
20
217.50000
30
0.0
11
840.50000
21
268.50000
31
0.0
0
LINE
8
CUT_INNER
10
840.50000
20
568.50000
30
0.0
11
834.50000
21
568.50000
31
0.0
0
LINE
8
CUT_INNER
10
834.50000
20
568.50000
30
0.0
11
834.50000
21
517.50000
31
0.0
0
LINE
8
CUT_INNER
10
834.50000
20
517.50000
30
0.0
11
840.50000
21
517.50000
31
0.0
0
LINE
8
CUT_INNER
10
840.50000
20
517.50000
30
0.0
11
840.50000
21
568.50000
31
0.0
0
CIRCLE
8
CUT_INNER
10
910.00000
20
68.00000
30
0.0
40
2.50000
0
CIRCLE
8
CUT_INNER
10
385.00000
20
645.00000
30
0.0
40
2.50000
0
CIRCLE
8
CUT_INNER
10
485.00000
20
445.00000
30
0.0
40
2.50000
0
CIRCLE
8
CUT_INNER
10
385.00000
20
445.00000
30
0.0
40
2.50000
0
CIRCLE
8
CUT_INNER
10
485.00000
20
645.00000
30
0.0
40
2.50000
0
CIRCLE
8
CUT_INNER
10
585.00000
20
645.00000
30
0.0
40
2.50000
0
CIRCLE
8
CUT_INNER
10
685.00000
20
445.00000
30
0.0
40
2.50000
0
CIRCLE
8
CUT_INNER
10
585.00000
20
445.00000
30
0.0
40
2.50000
0
CIRCLE
8
CUT_INNER
10
685.00000
20
645.00000
30
0.0
40
2.50000
0
CIRCLE
8
CUT_INNER
10
685.00000
20
545.00000
30
0.0
40
2.50000
0
CIRCLE
8
CUT_INNER
10
585.00000
20
545.00000
30
0.0
40
2.50000
0
CIRCLE
8
CUT_INNER
10
485.00000
20
545.00000
30
0.0
40
2.50000
0
CIRCLE
8
CUT_INNER
10
385.00000
20
545.00000
30
0.0
40
2.50000
0
ARC
8
CUT_INNER
10
895.00000
20
138.00000
30
0.0
40
10.50000
50
270.00000
51
180.00000
0
ARC
8
CUT_INNER
10
895.00000
20
138.00000
30
0.0
40
10.50000
50
180.00000
51
270.00000
0
ARC
8
CUT_INNER
10
895.00000
20
188.00000
30
0.0
40
8.50000
50
270.00000
51
180.00000
0
ARC
8
CUT_INNER
10
895.00000
20
188.00000
30
0.0
40
8.50000
50
180.00000
51
270.00000
0
ARC
8
CUT_INNER
10
895.00000
20
238.00000
30
0.0
40
8.50000
50
270.00000
51
180.00000
0
ARC
8
CUT_INNER
10
895.00000
20
238.00000
30
0.0
40
8.50000
50
180.00000
51
270.00000
0
ARC
8
CUT_INNER
10
895.00000
20
313.00000
30
0.0
40
10.50000
50
270.00000
51
180.00000
0
ARC
8
CUT_INNER
10
895.00000
20
313.00000
30
0.0
40
10.50000
50
180.00000
51
270.00000
0
LINE
8
CUT_INNER
10
285.50000
20
268.50000
30
0.0
11
279.50000
21
268.50000
31
0.0
0
LINE
8
CUT_INNER
10
279.50000
20
268.50000
30
0.0
11
279.50000
21
217.50000
31
0.0
0
LINE
8
CUT_INNER
10
279.50000
20
217.50000
30
0.0
11
285.50000
21
217.50000
31
0.0
0
LINE
8
CUT_INNER
10
285.50000
20
217.50000
30
0.0
11
285.50000
21
268.50000
31
0.0
0
LINE
8
CUT_INNER
10
285.50000
20
568.50000
30
0.0
11
279.50000
21
568.50000
31
0.0
0
LINE
8
CUT_INNER
10
279.50000
20
568.50000
30
0.0
11
279.50000
21
517.50000
31
0.0
0
LINE
8
CUT_INNER
10
279.50000
20
517.50000
30
0.0
11
285.50000
21
517.50000
31
0.0
0
LINE
8
CUT_INNER
10
285.50000
20
517.50000
30
0.0
11
285.50000
21
568.50000
31
0.0
0
CIRCLE
8
CUT_INNER
10
910.00000
20
890.00000
30
0.0
40
2.50000
0
CIRCLE
8
CUT_INNER
10
970.00000
20
890.00000
30
0.0
40
2.50000
0
CIRCLE
8
CUT_INNER
10
1030.00000
20
890.00000
30
0.0
40
2.50000
0
CIRCLE
8
CUT_INNER
10
916.00000
20
807.50000
30
0.0
40
16.00000
0
LINE
8
CUT_OUTER
10
1863.00000
20
320.00000
30
0.0
11
1818.00000
21
320.00000
31
0.0
0
ARC
8
CUT_OUTER
10
1863.00000
20
305.00000
30
0.0
40
15.00000
50
53.13010
51
90.00000
0
LINE
8
CUT_OUTER
10
2062.00000
20
174.50000
30
0.0
11
1872.00000
21
317.00000
31
0.0
0
ARC
8
CUT_OUTER
10
2053.00000
20
162.50000
30
0.0
40
15.00000
50
0.00000
51
53.13010
0
LINE
8
CUT_OUTER
10
2068.00000
20
120.00000
30
0.0
11
2068.00000
21
162.50000
31
0.0
0
LINE
8
CUT_OUTER
10
1868.00000
20
120.00000
30
0.0
11
2068.00000
21
120.00000
31
0.0
0
LINE
8
CUT_OUTER
10
1868.00000
20
120.00000
30
0.0
11
1868.00000
21
124.00000
31
0.0
0
LINE
8
CUT_OUTER
10
1868.00000
20
124.00000
30
0.0
11
1817.00000
21
124.00000
31
0.0
0
LINE
8
CUT_OUTER
10
1817.00000
20
124.00000
30
0.0
11
1817.00000
21
120.00000
31
0.0
0
LINE
8
CUT_OUTER
10
1567.00000
20
120.00000
30
0.0
11
1817.00000
21
120.00000
31
0.0
0
LINE
8
CUT_OUTER
10
1567.00000
20
120.00000
30
0.0
11
1567.00000
21
124.00000
31
0.0
0
LINE
8
CUT_OUTER
10
1567.00000
20
124.00000
30
0.0
11
1516.00000
21
124.00000
31
0.0
0
LINE
8
CUT_OUTER
10
1516.00000
20
124.00000
30
0.0
11
1516.00000
21
120.00000
31
0.0
0
LINE
8
CUT_OUTER
10
1243.00000
20
120.00000
30
0.0
11
1516.00000
21
120.00000
31
0.0
0
LINE
8
CUT_OUTER
10
1243.00000
20
20.00000
30
0.0
11
1243.00000
21
120.00000
31
0.0
0
LINE
8
CUT_OUTER
10
1130.50000
20
20.00000
30
0.0
11
1243.00000
21
20.00000
31
0.0
0
LINE
8
CUT_OUTER
10
1130.50000
20
13.00000
30
0.0
11
1130.50000
21
20.00000
31
0.0
0
LINE
8
CUT_OUTER
10
1130.50000
20
13.00000
30
0.0
11
1127.50000
21
10.00000
31
0.0
0
LINE
8
CUT_OUTER
10
1083.50000
20
10.00000
30
0.0
11
1127.50000
21
10.00000
31
0.0
0
LINE
8
CUT_OUTER
10
1083.50000
20
10.00000
30
0.0
11
1080.50000
21
13.00000
31
0.0
0
LINE
8
CUT_OUTER
10
1080.50000
20
20.00000
30
0.0
11
1080.50000
21
13.00000
31
0.0
0
LINE
8
CUT_OUTER
10
968.00000
20
20.00000
30
0.0
11
1080.50000
21
20.00000
31
0.0
0
LINE
8
CUT_OUTER
10
968.00000
20
40.00000
30
0.0
11
968.00000
21
20.00000
31
0.0
0
ARC
8
CUT_OUTER
10
983.00000
20
40.00000
30
0.0
40
15.00000
50
143.13010
51
180.00000
0
LINE
8
CUT_OUTER
10
1118.00000
20
245.00000
30
0.0
11
971.00000
21
49.00000
31
0.0
0
LINE
8
CUT_OUTER
10
1118.00000
20
318.00000
30
0.0
11
1118.00000
21
245.00000
31
0.0
0
LINE
8
CUT_OUTER
10
1118.00000
20
318.00000
30
0.0
11
1119.50000
21
318.00000
31
0.0
0
LINE
8
CUT_OUTER
10
1119.50000
20
318.00000
30
0.0
11
1119.50000
21
358.00000
31
0.0
0
LINE
8
CUT_OUTER
10
1119.50000
20
358.00000
30
0.0
11
1118.00000
21
358.00000
31
0.0
0
LINE
8
CUT_OUTER
10
1118.00000
20
568.00000
30
0.0
11
1118.00000
21
358.00000
31
0.0
0
LINE
8
CUT_OUTER
10
1118.00000
20
568.00000
30
0.0
11
1119.50000
21
568.00000
31
0.0
0
LINE
8
CUT_OUTER
10
1119.50000
20
568.00000
30
0.0
11
1119.50000
21
608.00000
31
0.0
0
LINE
8
CUT_OUTER
10
1119.50000
20
608.00000
30
0.0
11
1118.00000
21
608.00000
31
0.0
0
LINE
8
CUT_OUTER
10
1118.00000
20
818.00000
30
0.0
11
1118.00000
21
608.00000
31
0.0
0
LINE
8
CUT_OUTER
10
1118.00000
20
818.00000
30
0.0
11
1119.50000
21
818.00000
31
0.0
0
LINE
8
CUT_OUTER
10
1119.50000
20
818.00000
30
0.0
11
1119.50000
21
858.00000
31
0.0
0
LINE
8
CUT_OUTER
10
1119.50000
20
858.00000
30
0.0
11
1118.00000
21
858.00000
31
0.0
0
LINE
8
CUT_OUTER
10
1118.00000
20
922.00000
30
0.0
11
1118.00000
21
858.00000
31
0.0
0
LINE
8
CUT_OUTER
10
1268.50000
20
922.00000
30
0.0
11
1118.00000
21
922.00000
31
0.0
0
LINE
8
CUT_OUTER
10
1268.50000
20
927.00000
30
0.0
11
1268.50000
21
922.00000
31
0.0
0
LINE
8
CUT_OUTER
10
1268.50000
20
927.00000
30
0.0
11
1271.50000
21
930.00000
31
0.0
0
LINE
8
CUT_OUTER
10
1315.50000
20
930.00000
30
0.0
11
1271.50000
21
930.00000
31
0.0
0
LINE
8
CUT_OUTER
10
1315.50000
20
930.00000
30
0.0
11
1318.50000
21
927.00000
31
0.0
0
LINE
8
CUT_OUTER
10
1318.50000
20
927.00000
30
0.0
11
1318.50000
21
922.00000
31
0.0
0
LINE
8
CUT_OUTER
10
1617.50000
20
922.00000
30
0.0
11
1318.50000
21
922.00000
31
0.0
0
LINE
8
CUT_OUTER
10
1617.50000
20
927.00000
30
0.0
11
1617.50000
21
922.00000
31
0.0
0
LINE
8
CUT_OUTER
10
1617.50000
20
927.00000
30
0.0
11
1620.50000
21
930.00000
31
0.0
0
LINE
8
CUT_OUTER
10
1664.50000
20
930.00000
30
0.0
11
1620.50000
21
930.00000
31
0.0
0
LINE
8
CUT_OUTER
10
1664.50000
20
930.00000
30
0.0
11
1667.50000
21
927.00000
31
0.0
0
LINE
8
CUT_OUTER
10
1667.50000
20
927.00000
30
0.0
11
1667.50000
21
922.00000
31
0.0
0
LINE
8
CUT_OUTER
10
1818.00000
20
922.00000
30
0.0
11
1667.50000
21
922.00000
31
0.0
0
LINE
8
CUT_OUTER
10
1818.00000
20
320.00000
30
0.0
11
1818.00000
21
922.00000
31
0.0
0
LINE
8
CUT_INNER
10
1237.50000
20
671.50000
30
0.0
11
1243.50000
21
671.50000
31
0.0
0
LINE
8
CUT_INNER
10
1243.50000
20
671.50000
30
0.0
11
1243.50000
21
722.50000
31
0.0
0
LINE
8
CUT_INNER
10
1243.50000
20
722.50000
30
0.0
11
1237.50000
21
722.50000
31
0.0
0
LINE
8
CUT_INNER
10
1237.50000
20
722.50000
30
0.0
11
1237.50000
21
671.50000
31
0.0
0
LINE
8
CUT_INNER
10
1237.50000
20
371.50000
30
0.0
11
1243.50000
21
371.50000
31
0.0
0
LINE
8
CUT_INNER
10
1243.50000
20
371.50000
30
0.0
11
1243.50000
21
422.50000
31
0.0
0
LINE
8
CUT_INNER
10
1243.50000
20
422.50000
30
0.0
11
1237.50000
21
422.50000
31
0.0
0
LINE
8
CUT_INNER
10
1237.50000
20
422.50000
30
0.0
11
1237.50000
21
371.50000
31
0.0
0
CIRCLE
8
CUT_INNER
10
1493.00000
20
495.00000
30
0.0
40
2.50000
0
CIRCLE
8
CUT_INNER
10
1493.00000
20
395.00000
30
0.0
40
2.50000
0
CIRCLE
8
CUT_INNER
10
1183.00000
20
802.00000
30
0.0
40
10.50000
0
CIRCLE
8
CUT_INNER
10
1183.00000
20
752.00000
30
0.0
40
8.50000
0
CIRCLE
8
CUT_INNER
10
1183.00000
20
702.00000
30
0.0
40
8.50000
0
CIRCLE
8
CUT_INNER
10
1183.00000
20
627.00000
30
0.0
40
10.50000
0
CIRCLE
8
CUT_INNER
10
1048.00000
20
50.00000
30
0.0
40
2.50000
0
CIRCLE
8
CUT_INNER
10
1108.00000
20
50.00000
30
0.0
40
2.50000
0
CIRCLE
8
CUT_INNER
10
1168.00000
20
50.00000
30
0.0
40
2.50000
0
CIRCLE
8
CUT_INNER
10
1393.00000
20
295.00000
30
0.0
40
2.50000
0
CIRCLE
8
CUT_INNER
10
1393.00000
20
395.00000
30
0.0
40
2.50000
0
CIRCLE
8
CUT_INNER
10
1493.00000
20
295.00000
30
0.0
40
2.50000
0
CIRCLE
8
CUT_INNER
10
1593.00000
20
295.00000
30
0.0
40
2.50000
0
CIRCLE
8
CUT_INNER
10
1693.00000
20
395.00000
30
0.0
40
2.50000
0
CIRCLE
8
CUT_INNER
10
1593.00000
20
395.00000
30
0.0
40
2.50000
0
CIRCLE
8
CUT_INNER
10
1693.00000
20
295.00000
30
0.0
40
2.50000
0
CIRCLE
8
CUT_INNER
10
1393.00000
20
495.00000
30
0.0
40
2.50000
0
CIRCLE
8
CUT_INNER
10
1593.00000
20
495.00000
30
0.0
40
2.50000
0
CIRCLE
8
CUT_INNER
10
1693.00000
20
495.00000
30
0.0
40
2.50000
0
LINE
8
CUT_INNER
10
1792.50000
20
671.50000
30
0.0
11
1798.50000
21
671.50000
31
0.0
0
LINE
8
CUT_INNER
10
1798.50000
20
671.50000
30
0.0
11
1798.50000
21
722.50000
31
0.0
0
LINE
8
CUT_INNER
10
1798.50000
20
722.50000
30
0.0
11
1792.50000
21
722.50000
31
0.0
0
LINE
8
CUT_INNER
10
1792.50000
20
722.50000
30
0.0
11
1792.50000
21
671.50000
31
0.0
0
LINE
8
CUT_INNER
10
1792.50000
20
371.50000
30
0.0
11
1798.50000
21
371.50000
31
0.0
0
LINE
8
CUT_INNER
10
1798.50000
20
371.50000
30
0.0
11
1798.50000
21
422.50000
31
0.0
0
LINE
8
CUT_INNER
10
1798.50000
20
422.50000
30
0.0
11
1792.50000
21
422.50000
31
0.0
0
LINE
8
CUT_INNER
10
1792.50000
20
422.50000
30
0.0
11
1792.50000
21
371.50000
31
0.0
0
CIRCLE
8
CUT_INNER
10
1162.00000
20
132.50000
30
0.0
40
16.00000
0
LINE
8
CUT_OUTER
10
12.50000
20
117.50000
30
0.0
11
15.00000
21
117.50000
31
0.0
0
LINE
8
CUT_OUTER
10
12.50000
20
117.50000
30
0.0
11
10.00000
21
120.00000
31
0.0
0
LINE
8
CUT_OUTER
10
10.00000
20
165.00000
30
0.0
11
10.00000
21
120.00000
31
0.0
0
LINE
8
CUT_OUTER
10
10.00000
20
165.00000
30
0.0
11
12.50000
21
167.50000
31
0.0
0
LINE
8
CUT_OUTER
10
15.00000
20
167.50000
30
0.0
11
12.50000
21
167.50000
31
0.0
0
LINE
8
CUT_OUTER
10
15.00000
20
267.50000
30
0.0
11
15.00000
21
167.50000
31
0.0
0
LINE
8
CUT_OUTER
10
12.50000
20
267.50000
30
0.0
11
15.00000
21
267.50000
31
0.0
0
LINE
8
CUT_OUTER
10
12.50000
20
267.50000
30
0.0
11
10.00000
21
270.00000
31
0.0
0
LINE
8
CUT_OUTER
10
10.00000
20
315.00000
30
0.0
11
10.00000
21
270.00000
31
0.0
0
LINE
8
CUT_OUTER
10
10.00000
20
315.00000
30
0.0
11
12.50000
21
317.50000
31
0.0
0
LINE
8
CUT_OUTER
10
15.00000
20
317.50000
30
0.0
11
12.50000
21
317.50000
31
0.0
0
LINE
8
CUT_OUTER
10
15.00000
20
425.00000
30
0.0
11
15.00000
21
317.50000
31
0.0
0
LINE
8
CUT_OUTER
10
135.00000
20
425.00000
30
0.0
11
15.00000
21
425.00000
31
0.0
0
LINE
8
CUT_OUTER
10
135.00000
20
10.00000
30
0.0
11
135.00000
21
425.00000
31
0.0
0
LINE
8
CUT_OUTER
10
15.00000
20
10.00000
30
0.0
11
135.00000
21
10.00000
31
0.0
0
LINE
8
CUT_OUTER
10
15.00000
20
117.50000
30
0.0
11
15.00000
21
10.00000
31
0.0
0
ARC
8
CUT_INNER
10
70.00000
20
377.50000
30
0.0
40
20.00000
50
90.00000
51
0.00000
0
ARC
8
CUT_INNER
10
70.00000
20
377.50000
30
0.0
40
20.00000
50
0.00000
51
90.00000
0
ARC
8
CUT_INNER
10
70.00000
20
57.50000
30
0.0
40
20.00000
50
90.00000
51
0.00000
0
ARC
8
CUT_INNER
10
70.00000
20
57.50000
30
0.0
40
20.00000
50
0.00000
51
90.00000
0
ARC
8
CUT_INNER
10
70.00000
20
217.50000
30
0.0
40
20.00000
50
90.00000
51
0.00000
0
ARC
8
CUT_INNER
10
70.00000
20
217.50000
30
0.0
40
20.00000
50
0.00000
51
90.00000
0
LINE
8
CUT_INNER
10
96.50000
20
299.50000
30
0.0
11
96.50000
21
293.50000
31
0.0
0
LINE
8
CUT_INNER
10
60.50000
20
299.50000
30
0.0
11
96.50000
21
299.50000
31
0.0
0
LINE
8
CUT_INNER
10
60.50000
20
293.50000
30
0.0
11
60.50000
21
299.50000
31
0.0
0
LINE
8
CUT_INNER
10
96.50000
20
293.50000
30
0.0
11
60.50000
21
293.50000
31
0.0
0
LINE
8
CUT_INNER
10
96.50000
20
141.50000
30
0.0
11
96.50000
21
135.50000
31
0.0
0
LINE
8
CUT_INNER
10
60.50000
20
141.50000
30
0.0
11
96.50000
21
141.50000
31
0.0
0
LINE
8
CUT_INNER
10
60.50000
20
135.50000
30
0.0
11
60.50000
21
141.50000
31
0.0
0
LINE
8
CUT_INNER
10
96.50000
20
135.50000
30
0.0
11
60.50000
21
135.50000
31
0.0
0
LINE
8
CUT_OUTER
10
2014.00000
20
30.02672
30
0.0
11
2014.00000
21
10.00000
31
0.0
0
ARC
8
CUT_OUTER
10
2029.00000
20
30.02672
30
0.0
40
15.00000
50
143.31389
51
180.00000
0
LINE
8
CUT_OUTER
10
2163.00000
20
235.00000
30
0.0
11
2016.97119
21
38.98818
31
0.0
0
LINE
8
CUT_OUTER
10
2203.00000
20
235.00000
30
0.0
11
2163.00000
21
235.00000
31
0.0
0
LINE
8
CUT_OUTER
10
2203.00000
20
237.50000
30
0.0
11
2203.00000
21
235.00000
31
0.0
0
LINE
8
CUT_OUTER
10
2203.00000
20
237.50000
30
0.0
11
2205.50000
21
240.00000
31
0.0
0
LINE
8
CUT_OUTER
10
2235.50000
20
240.00000
30
0.0
11
2205.50000
21
240.00000
31
0.0
0
LINE
8
CUT_OUTER
10
2235.50000
20
240.00000
30
0.0
11
2238.00000
21
237.50000
31
0.0
0
LINE
8
CUT_OUTER
10
2238.00000
20
235.00000
30
0.0
11
2238.00000
21
237.50000
31
0.0
0
LINE
8
CUT_OUTER
10
2283.00000
20
235.00000
30
0.0
11
2238.00000
21
235.00000
31
0.0
0
LINE
8
CUT_OUTER
10
2283.00000
20
95.00000
30
0.0
11
2283.00000
21
235.00000
31
0.0
0
LINE
8
CUT_OUTER
10
2285.50000
20
95.00000
30
0.0
11
2283.00000
21
95.00000
31
0.0
0
LINE
8
CUT_OUTER
10
2285.50000
20
95.00000
30
0.0
11
2288.00000
21
92.50000
31
0.0
0
LINE
8
CUT_OUTER
10
2288.00000
20
47.50000
30
0.0
11
2288.00000
21
92.50000
31
0.0
0
LINE
8
CUT_OUTER
10
2288.00000
20
47.50000
30
0.0
11
2285.50000
21
45.00000
31
0.0
0
LINE
8
CUT_OUTER
10
2283.00000
20
45.00000
30
0.0
11
2285.50000
21
45.00000
31
0.0
0
LINE
8
CUT_OUTER
10
2283.00000
20
10.00000
30
0.0
11
2283.00000
21
45.00000
31
0.0
0
LINE
8
CUT_OUTER
10
2014.00000
20
10.00000
30
0.0
11
2283.00000
21
10.00000
31
0.0
0
ARC
8
CUT_INNER
10
2207.00000
20
122.50000
30
0.0
40
25.00000
50
0.00000
51
270.00000
0
ARC
8
CUT_INNER
10
2207.00000
20
122.50000
30
0.0
40
25.00000
50
270.00000
51
0.00000
0
ENDSEC
0
EOF
