0
SECTION
2
ENTITIES
0
LINE
8
SHEET
10
0.00000
20
0.00000
30
0.0
11
2440.00000
21
0.00000
31
0.0
0
LINE
8
SHEET
10
2440.00000
20
0.00000
30
0.0
11
2440.00000
21
1220.00000
31
0.0
0
LINE
8
SHEET
10
2440.00000
20
1220.00000
30
0.0
11
0.00000
21
1220.00000
31
0.0
0
LINE
8
SHEET
10
0.00000
20
1220.00000
30
0.0
11
0.00000
21
0.00000
31
0.0
0
LINE
8
CUT_OUTER
10
1973.97328
20
818.00000
30
0.0
11
1994.00000
21
818.00000
31
0.0
0
ARC
8
CUT_OUTER
10
1973.97328
20
833.00000
30
0.0
40
15.00000
50
233.31389
51
270.00000
0
LINE
8
CUT_OUTER
10
1769.00000
20
967.00000
30
0.0
11
1965.01182
21
820.97119
31
0.0
0
LINE
8
CUT_OUTER
10
1769.00000
20
1007.00000
30
0.0
11
1769.00000
21
967.00000
31
0.0
0
LINE
8
CUT_OUTER
10
1766.50000
20
1007.00000
30
0.0
11
1769.00000
21
1007.00000
31
0.0
0
LINE
8
CUT_OUTER
10
1766.50000
20
1007.00000
30
0.0
11
1764.00000
21
1009.50000
31
0.0
0
LINE
8
CUT_OUTER
10
1764.00000
20
1039.50000
30
0.0
11
1764.00000
21
1009.50000
31
0.0
0
LINE
8
CUT_OUTER
10
1764.00000
20
1039.50000
30
0.0
11
1766.50000
21
1042.00000
31
0.0
0
LINE
8
CUT_OUTER
10
1769.00000
20
1042.00000
30
0.0
11
1766.50000
21
1042.00000
31
0.0
0
LINE
8
CUT_OUTER
10
1769.00000
20
1087.00000
30
0.0
11
1769.00000
21
1042.00000
31
0.0
0
LINE
8
CUT_OUTER
10
1909.00000
20
1087.00000
30
0.0
11
1769.00000
21
1087.00000
31
0.0
0
LINE
8
CUT_OUTER
10
1909.00000
20
1089.50000
30
0.0
11
1909.00000
21
1087.00000
31
0.0
0
LINE
8
CUT_OUTER
10
1909.00000
20
1089.50000
30
0.0
11
1911.50000
21
1092.00000
31
0.0
0
LINE
8
CUT_OUTER
10
1956.50000
20
1092.00000
30
0.0
11
1911.50000
21
1092.00000
31
0.0
0
LINE
8
CUT_OUTER
10
1956.50000
20
1092.00000
30
0.0
11
1959.00000
21
1089.50000
31
0.0
0
LINE
8
CUT_OUTER
10
1959.00000
20
1087.00000
30
0.0
11
1959.00000
21
1089.50000
31
0.0
0
LINE
8
CUT_OUTER
10
1994.00000
20
1087.00000
30
0.0
11
1959.00000
21
1087.00000
31
0.0
0
LINE
8
CUT_OUTER
10
1994.00000
20
818.00000
30
0.0
11
1994.00000
21
1087.00000
31
0.0
0
ARC
8
CUT_INNER
10
1881.50000
20
1011.00000
30
0.0
40
25.00000
50
90.00000
51
0.00000
0
ARC
8
CUT_INNER
10
1881.50000
20
1011.00000
30
0.0
40
25.00000
50
0.00000
51
90.00000
0
LINE
8
CUT_OUTER
10
215.00000
20
620.00000
30
0.0
11
260.00000
21
620.00000
31
0.0
0
ARC
8
CUT_OUTER
10
215.00000
20
635.00000
30
0.0
40
15.00000
50
233.13010
51
270.00000
0
LINE
8
CUT_OUTER
10
16.00000
20
765.50000
30
0.0
11
206.00000
21
623.00000
31
0.0
0
ARC
8
CUT_OUTER
10
25.00000
20
777.50000
30
0.0
40
15.00000
50
180.00000
51
233.13010
0
LINE
8
CUT_OUTER
10
10.00000
20
820.00000
30
0.0
11
10.00000
21
777.50000
31
0.0
0
LINE
8
CUT_OUTER
10
210.00000
20
820.00000
30
0.0
11
10.00000
21
820.00000
31
0.0
0
LINE
8
CUT_OUTER
10
210.00000
20
820.00000
30
0.0
11
210.00000
21
816.00000
31
0.0
0
LINE
8
CUT_OUTER
10
210.00000
20
816.00000
30
0.0
11
261.00000
21
816.00000
31
0.0
0
LINE
8
CUT_OUTER
10
261.00000
20
816.00000
30
0.0
11
261.00000
21
820.00000
31
0.0
0
LINE
8
CUT_OUTER
10
511.00000
20
820.00000
30
0.0
11
261.00000
21
820.00000
31
0.0
0
LINE
8
CUT_OUTER
10
511.00000
20
820.00000
30
0.0
11
511.00000
21
816.00000
31
0.0
0
LINE
8
CUT_OUTER
10
511.00000
20
816.00000
30
0.0
11
562.00000
21
816.00000
31
0.0
0
LINE
8
CUT_OUTER
10
562.00000
20
816.00000
30
0.0
11
562.00000
21
820.00000
31
0.0
0
LINE
8
CUT_OUTER
10
835.00000
20
820.00000
30
0.0
11
562.00000
21
820.00000
31
0.0
0
LINE
8
CUT_OUTER
10
835.00000
20
920.00000
30
0.0
11
835.00000
21
820.00000
31
0.0
0
LINE
8
CUT_OUTER
10
947.50000
20
920.00000
30
0.0
11
835.00000
21
920.00000
31
0.0
0
LINE
8
CUT_OUTER
10
947.50000
20
927.00000
30
0.0
11
947.50000
21
920.00000
31
0.0
0
LINE
8
CUT_OUTER
10
947.50000
20
927.00000
30
0.0
11
950.50000
21
930.00000
31
0.0
0
LINE
8
CUT_OUTER
10
994.50000
20
930.00000
30
0.0
11
950.50000
21
930.00000
31
0.0
0
LINE
8
CUT_OUTER
10
994.50000
20
930.00000
30
0.0
11
997.50000
21
927.00000
31
0.0
0
LINE
8
CUT_OUTER
10
997.50000
20
920.00000
30
0.0
11
997.50000
21
927.00000
31
0.0
0
LINE
8
CUT_OUTER
10
1110.00000
20
920.00000
30
0.0
11
997.50000
21
920.00000
31
0.0
0
LINE
8
CUT_OUTER
10
1110.00000
20
900.00000
30
0.0
11
1110.00000
21
920.00000
31
0.0
0
ARC
8
CUT_OUTER
10
1095.00000
20
900.00000
30
0.0
40
15.00000
50
323.13010
51
0.00000
0
LINE
8
CUT_OUTER
10
960.00000
20
695.00000
30
0.0
11
1107.00000
21
891.00000
31
0.0
0
LINE
8
CUT_OUTER
10
960.00000
20
622.00000
30
0.0
11
960.00000
21
695.00000
31
0.0
0
LINE
8
CUT_OUTER
10
958.50000
20
622.00000
30
0.0
11
960.00000
21
622.00000
31
0.0
0
LINE
8
CUT_OUTER
10
958.50000
20
582.00000
30
0.0
11
958.50000
21
622.00000
31
0.0
0
LINE
8
CUT_OUTER
10
960.00000
20
582.00000
30
0.0
11
958.50000
21
582.00000
31
0.0
0
LINE
8
CUT_OUTER
10
960.00000
20
372.00000
30
0.0
11
960.00000
21
582.00000
31
0.0
0
LINE
8
CUT_OUTER
10
958.50000
20
372.00000
30
0.0
11
960.00000
21
372.00000
31
0.0
0
LINE
8
CUT_OUTER
10
958.50000
20
332.00000
30
0.0
11
958.50000
21
372.00000
31
0.0
0
LINE
8
CUT_OUTER
10
960.00000
20
332.00000
30
0.0
11
958.50000
21
332.00000
31
0.0
0
LINE
8
CUT_OUTER
10
960.00000
20
122.00000
30
0.0
11
960.00000
21
332.00000
31
0.0
0
LINE
8
CUT_OUTER
10
958.50000
20
122.00000
30
0.0
11
960.00000
21
122.00000
31
0.0
0
LINE
8
CUT_OUTER
10
958.50000
20
82.00000
30
0.0
11
958.50000
21
122.00000
31
0.0
0
LINE
8
CUT_OUTER
10
960.00000
20
82.00000
30
0.0
11
958.50000
21
82.00000
31
0.0
0
LINE
8
CUT_OUTER
10
960.00000
20
18.00000
30
0.0
11
960.00000
21
82.00000
31
0.0
0
LINE
8
CUT_OUTER
10
809.50000
20
18.00000
30
0.0
11
960.00000
21
18.00000
31
0.0
0
LINE
8
CUT_OUTER
10
809.50000
20
13.00000
30
0.0
11
809.50000
21
18.00000
31
0.0
0
LINE
8
CUT_OUTER
10
809.50000
20
13.00000
30
0.0
11
806.50000
21
10.00000
31
0.0
0
LINE
8
CUT_OUTER
10
762.50000
20
10.00000
30
0.0
11
806.50000
21
10.00000
31
0.0
0
LINE
8
CUT_OUTER
10
762.50000
20
10.00000
30
0.0
11
759.50000
21
13.00000
31
0.0
0
LINE
8
CUT_OUTER
10
759.50000
20
13.00000
30
0.0
11
759.50000
21
18.00000
31
0.0
0
LINE
8
CUT_OUTER
10
460.50000
20
18.00000
30
0.0
11
759.50000
21
18.00000
31
0.0
0
LINE
8
CUT_OUTER
10
460.50000
20
13.00000
30
0.0
11
460.50000
21
18.00000
31
0.0
0
LINE
8
CUT_OUTER
10
460.50000
20
13.00000
30
0.0
11
457.50000
21
10.00000
31
0.0
0
LINE
8
CUT_OUTER
10
413.50000
20
10.00000
30
0.0
11
457.50000
21
10.00000
31
0.0
0
LINE
8
CUT_OUTER
10
413.50000
20
10.00000
30
0.0
11
410.50000
21
13.00000
31
0.0
0
LINE
8
CUT_OUTER
10
410.50000
20
13.00000
30
0.0
11
410.50000
21
18.00000
31
0.0
0
LINE
8
CUT_OUTER
10
260.00000
20
18.00000
30
0.0
11
410.50000
21
18.00000
31
0.0
0
LINE
8
CUT_OUTER
10
260.00000
20
620.00000
30
0.0
11
260.00000
21
18.00000
31
0.0
0
LINE
8
CUT_INNER
10
840.50000
20
268.50000
30
0.0
11
834.50000
21
268.50000
31
0.0
0
LINE
8
CUT_INNER
10
834.50000
20
268.50000
30
0.0
11
834.50000
21
217.50000
31
0.0
0
LINE
8
CUT_INNER
10
834.50000
20
217.50000
30
0.0
11
840.50000
21
217.50000
31
0.0
0
LINE
8
CUT_INNER
10
840.50000
20
217.50000
30
0.0
11
840.50000
21
268.50000
31
0.0
0
LINE
8
CUT_INNER
10
840.50000
20
568.50000
30
0.0
11
834.50000
21
568.50000
31
0.0
0
LINE
8
CUT_INNER
10
834.50000
20
568.50000
30
0.0
11
834.50000
21
517.50000
31
0.0
0
LINE
8
CUT_INNER
10
834.50000
20
517.50000
30
0.0
11
840.50000
21
517.50000
31
0.0
0
LINE
8
CUT_INNER
10
840.50000
20
517.50000
30
0.0
11
840.50000
21
568.50000
31
0.0
0
CIRCLE
8
CUT_INNER
10
910.00000
20
68.00000
30
0.0
40
2.50000
0
CIRCLE
8
CUT_INNER
10
385.00000
20
645.00000
30
0.0
40
2.50000
0
CIRCLE
8
CUT_INNER
10
485.00000
20
445.00000
30
0.0
40
2.50000
0
CIRCLE
8
CUT_INNER
10
385.00000
20
445.00000
30
0.0
40
2.50000
0
CIRCLE
8
CUT_INNER
10
485.00000
20
645.00000
30
0.0
40
2.50000
0
CIRCLE
8
CUT_INNER
10
585.00000
20
645.00000
30
0.0
40
2.50000
0
CIRCLE
8
CUT_INNER
10
685.00000
20
445.00000
30
0.0
40
2.50000
0
CIRCLE
8
CUT_INNER
10
585.00000
20
445.00000
30
0.0
40
2.50000
0
CIRCLE
8
CUT_INNER
10
685.00000
20
645.00000
30
0.0
40
2.50000
0
CIRCLE
8
CUT_INNER
10
685.00000
20
545.00000
30
0.0
40
2.50000
0
CIRCLE
8
CUT_INNER
10
585.00000
20
545.00000
30
0.0
40
2.50000
0
CIRCLE
8
CUT_INNER
10
485.00000
20
545.00000
30
0.0
40
2.50000
0
CIRCLE
8
CUT_INNER
10
385.00000
20
545.00000
30
0.0
40
2.50000
0
ARC
8
CUT_INNER
10
895.00000
20
138.00000
30
0.0
40
10.50000
50
270.00000
51
180.00000
0
ARC
8
CUT_INNER
10
895.00000
20
138.00000
30
0.0
40
10.50000
50
180.00000
51
270.00000
0
ARC
8
CUT_INNER
10
895.00000
20
188.00000
30
0.0
40
8.50000
50
270.00000
51
180.00000
0
ARC
8
CUT_INNER
10
895.00000
20
188.00000
30
0.0
40
8.50000
50
180.00000
51
270.00000
0
ARC
8
CUT_INNER
10
895.00000
20
238.00000
30
0.0
40
8.50000
50
270.00000
51
180.00000
0
ARC
8
CUT_INNER
10
895.00000
20
238.00000
30
0.0
40
8.50000
50
180.00000
51
270.00000
0
ARC
8
CUT_INNER
10
895.00000
20
313.00000
30
0.0
40
10.50000
50
270.00000
51
180.00000
0
ARC
8
CUT_INNER
10
895.00000
20
313.00000
30
0.0
40
10.50000
50
180.00000
51
270.00000
0
LINE
8
CUT_INNER
10
285.50000
20
268.50000
30
0.0
11
279.50000
21
268.50000
31
0.0
0
LINE
8
CUT_INNER
10
279.50000
20
268.50000
30
0.0
11
279.50000
21
217.50000
31
0.0
0
LINE
8
CUT_INNER
10
279.50000
20
217.50000
30
0.0
11
285.50000
21
217.50000
31
0.0
0
LINE
8
CUT_INNER
10
285.50000
20
217.50000
30
0.0
11
285.50000
21
268.50000
31
0.0
0
LINE
8
CUT_INNER
10
285.50000
20
568.50000
30
0.0
11
279.50000
21
568.50000
31
0.0
0
LINE
8
CUT_INNER
10
279.50000
20
568.50000
30
0.0
11
279.50000
21
517.50000
31
0.0
0
LINE
8
CUT_INNER
10
279.50000
20
517.50000
30
0.0
11
285.50000
21
517.50000
31
0.0
0
LINE
8
CUT_INNER
10
285.50000
20
517.50000
30
0.0
11
285.50000
21
568.50000
31
0.0
0
CIRCLE
8
CUT_INNER
10
910.00000
20
890.00000
30
0.0
40
2.50000
0
CIRCLE
8
CUT_INNER
10
970.00000
20
890.00000
30
0.0
40
2.50000
0
CIRCLE
8
CUT_INNER
10
1030.00000
20
890.00000
30
0.0
40
2.50000
0
CIRCLE
8
CUT_INNER
10
916.00000
20
807.50000
30
0.0
40
16.00000
0
LINE
8
CUT_OUTER
10
1863.00000
20
320.00000
30
0.0
11
1818.00000
21
320.00000
31
0.0
0
ARC
8
CUT_OUTER
10
1863.00000
20
305.00000
30
0.0
40
15.00000
50
53.13010
51
90.00000
0
LINE
8
CUT_OUTER
10
2062.00000
20
174.50000
30
0.0
11
1872.00000
21
317.00000
31
0.0
0
ARC
8
CUT_OUTER
10
2053.00000
20
162.50000
30
0.0
40
15.00000
50
0.00000
51
53.13010
0
LINE
8
CUT_OUTER
10
2068.00000
20
120.00000
30
0.0
11
2068.00000
21
162.50000
31
0.0
0
LINE
8
CUT_OUTER
10
1868.00000
20
120.00000
30
0.0
11
2068.00000
21
120.00000
31
0.0
0
LINE
8
CUT_OUTER
10
1868.00000
20
120.00000
30
0.0
11
1868.00000
21
124.00000
31
0.0
0
LINE
8
CUT_OUTER
10
1868.00000
20
124.00000
30
0.0
11
1817.00000
21
124.00000
31
0.0
0
LINE
8
CUT_OUTER
10
1817.00000
20
124.00000
30
0.0
11
1817.00000
21
120.00000
31
0.0
0
LINE
8
CUT_OUTER
10
1567.00000
20
120.00000
30
0.0
11
1817.00000
21
120.00000
31
0.0
0
LINE
8
CUT_OUTER
10
1567.00000
20
120.00000
30
0.0
11
1567.00000
21
124.00000
31
0.0
0
LINE
8
CUT_OUTER
10
1567.00000
20
124.00000
30
0.0
11
1516.00000
21
124.00000
31
0.0
0
LINE
8
CUT_OUTER
10
1516.00000
20
124.00000
30
0.0
11
1516.00000
21
120.00000
31
0.0
0
LINE
8
CUT_OUTER
10
1243.00000
20
120.00000
30
0.0
11
1516.00000
21
120.00000
31
0.0
0
LINE
8
CUT_OUTER
10
1243.00000
20
20.00000
30
0.0
11
1243.00000
21
120.00000
31
0.0
0
LINE
8
CUT_OUTER
10
1130.50000
20
20.00000
30
0.0
11
1243.00000
21
20.00000
31
0.0
0
LINE
8
CUT_OUTER
10
1130.50000
20
13.00000
30
0.0
11
1130.50000
21
20.00000
31
0.0
0
LINE
8
CUT_OUTER
10
1130.50000
20
13.00000
30
0.0
11
1127.50000
21
10.00000
31
0.0
0
LINE
8
CUT_OUTER
10
1083.50000
20
10.00000
30
0.0
11
1127.50000
21
10.00000
31
0.0
0
LINE
8
CUT_OUTER
10
1083.50000
20
10.00000
30
0.0
11
1080.50000
21
13.00000
31
0.0
0
LINE
8
CUT_OUTER
10
1080.50000
20
20.00000
30
0.0
11
1080.50000
21
13.00000
31
0.0
0
LINE
8
CUT_OUTER
10
968.00000
20
20.00000
30
0.0
11
1080.50000
21
20.00000
31
0.0
0
LINE
8
CUT_OUTER
10
968.00000
20
40.00000
30
0.0
11
968.00000
21
20.00000
31
0.0
0
ARC
8
CUT_OUTER
10
983.00000
20
40.00000
30
0.0
40
15.00000
50
143.13010
51
180.00000
0
LINE
8
CUT_OUTER
10
1118.00000
20
245.00000
30
0.0
11
971.00000
21
49.00000
31
0.0
0
LINE
8
CUT_OUTER
10
1118.00000
20
318.00000
30
0.0
11
1118.00000
21
245.00000
31
0.0
0
LINE
8
CUT_OUTER
10
1118.00000
20
318.00000
30
0.0
11
1119.50000
21
318.00000
31
0.0
0
LINE
8
CUT_OUTER
10
1119.50000
20
318.00000
30
0.0
11
1119.50000
21
358.00000
31
0.0
0
LINE
8
CUT_OUTER
10
1119.50000
20
358.00000
30
0.0
11
1118.00000
21
358.00000
31
0.0
0
LINE
8
CUT_OUTER
10
1118.00000
20
568.00000
30
0.0
11
1118.00000
21
358.00000
31
0.0
0
LINE
8
CUT_OUTER
10
1118.00000
20
568.00000
30
0.0
11
1119.50000
21
568.00000
31
0.0
0
LINE
8
CUT_OUTER
10
1119.50000
20
568.00000
30
0.0
11
1119.50000
21
608.00000
31
0.0
0
LINE
8
CUT_OUTER
10
1119.50000
20
608.00000
30
0.0
11
1118.00000
21
608.00000
31
0.0
0
LINE
8
CUT_OUTER
10
1118.00000
20
818.00000
30
0.0
11
1118.00000
21
608.00000
31
0.0
0
LINE
8
CUT_OUTER
10
1118.00000
20
818.00000
30
0.0
11
1119.50000
21
818.00000
31
0.0
0
LINE
8
CUT_OUTER
10
1119.50000
20
818.00000
30
0.0
11
1119.50000
21
858.00000
31
0.0
0
LINE
8
CUT_OUTER
10
1119.50000
20
858.00000
30
0.0
11
1118.00000
21
858.00000
31
0.0
0
LINE
8
CUT_OUTER
10
1118.00000
20
922.00000
30
0.0
11
1118.00000
21
858.00000
31
0.0
0
LINE
8
CUT_OUTER
10
1268.50000
20
922.00000
30
0.0
11
1118.00000
21
922.00000
31
0.0
0
LINE
8
CUT_OUTER
10
1268.50000
20
927.00000
30
0.0
11
1268.50000
21
922.00000
31
0.0
0
LINE
8
CUT_OUTER
10
1268.50000
20
927.00000
30
0.0
11
1271.50000
21
930.00000
31
0.0
0
LINE
8
CUT_OUTER
10
1315.50000
20
930.00000
30
0.0
11
1271.50000
21
930.00000
31
0.0
0
LINE
8
CUT_OUTER
10
1315.50000
20
930.00000
30
0.0
11
1318.50000
21
927.00000
31
0.0
0
LINE
8
CUT_OUTER
10
1318.50000
20
927.00000
30
0.0
11
1318.50000
21
922.00000
31
0.0
0
LINE
8
CUT_OUTER
10
1617.50000
20
922.00000
30
0.0
11
1318.50000
21
922.00000
31
0.0
0
LINE
8
CUT_OUTER
10
1617.50000
20
927.00000
30
0.0
11
1617.50000
21
922.00000
31
0.0
0
LINE
8
CUT_OUTER
10
1617.50000
20
927.00000
30
0.0
11
1620.50000
21
930.00000
31
0.0
0
LINE
8
CUT_OUTER
10
1664.50000
20
930.00000
30
0.0
11
1620.50000
21
930.00000
31
0.0
0
LINE
8
CUT_OUTER
10
1664.50000
20
930.00000
30
0.0
11
1667.50000
21
927.00000
31
0.0
0
LINE
8
CUT_OUTER
10
1667.50000
20
927.00000
30
0.0
11
1667.50000
21
922.00000
31
0.0
0
LINE
8
CUT_OUTER
10
1818.00000
20
922.00000
30
0.0
11
1667.50000
21
922.00000
31
0.0
0
LINE
8
CUT_OUTER
10
1818.00000
20
320.00000
30
0.0
11
1818.00000
21
922.00000
31
0.0
0
LINE
8
CUT_INNER
10
1237.50000
20
671.50000
30
0.0
11
1243.50000
21
671.50000
31
0.0
0
LINE
8
CUT_INNER
10
1243.50000
20
671.50000
30
0.0
11
1243.50000
21
722.50000
31
0.0
0
LINE
8
CUT_INNER
10
1243.50000
20
722.50000
30
0.0
11
1237.50000
21
722.50000
31
0.0
0
LINE
8
CUT_INNER
10
1237.50000
20
722.50000
30
0.0
11
1237.50000
21
671.50000
31
0.0
0
LINE
8
CUT_INNER
10
1237.50000
20
371.50000
30
0.0
11
1243.50000
21
371.50000
31
0.0
0
LINE
8
CUT_INNER
10
1243.50000
20
371.50000
30
0.0
11
1243.50000
21
422.50000
31
0.0
0
LINE
8
CUT_INNER
10
1243.50000
20
422.50000
30
0.0
11
1237.50000
21
422.50000
31
0.0
0
LINE
8
CUT_INNER
10
1237.50000
20
422.50000
30
0.0
11
1237.50000
21
371.50000
31
0.0
0
CIRCLE
8
CUT_INNER
10
1493.00000
20
495.00000
30
0.0
40
2.50000
0
CIRCLE
8
CUT_INNER
10
1493.00000
20
395.00000
30
0.0
40
2.50000
0
CIRCLE
8
CUT_INNER
10
1183.00000
20
802.00000
30
0.0
40
10.50000
0
CIRCLE
8
CUT_INNER
10
1183.00000
20
752.00000
30
0.0
40
8.50000
0
CIRCLE
8
CUT_INNER
10
1183.00000
20
702.00000
30
0.0
40
8.50000
0
CIRCLE
8
CUT_INNER
10
1183.00000
20
627.00000
30
0.0
40
10.50000
0
CIRCLE
8
CUT_INNER
10
1048.00000
20
50.00000
30
0.0
40
2.50000
0
CIRCLE
8
CUT_INNER
10
1108.00000
20
50.00000
30
0.0
40
2.50000
0
CIRCLE
8
CUT_INNER
10
1168.00000
20
50.00000
30
0.0
40
2.50000
0
CIRCLE
8
CUT_INNER
10
1393.00000
20
295.00000
30
0.0
40
2.50000
0
CIRCLE
8
CUT_INNER
10
1393.00000
20
395.00000
30
0.0
40
2.50000
0
CIRCLE
8
CUT_INNER
10
1493.00000
20
295.00000
30
0.0
40
2.50000
0
CIRCLE
8
CUT_INNER
10
1593.00000
20
295.00000
30
0.0
40
2.50000
0
CIRCLE
8
CUT_INNER
10
1693.00000
20
395.00000
30
0.0
40
2.50000
0
CIRCLE
8
CUT_INNER
10
1593.00000
20
395.00000
30
0.0
40
2.50000
0
CIRCLE
8
CUT_INNER
10
1693.00000
20
295.00000
30
0.0
40
2.50000
0
CIRCLE
8
CUT_INNER
10
1393.00000
20
495.00000
30
0.0
40
2.50000
0
CIRCLE
8
CUT_INNER
10
1593.00000
20
495.00000
30
0.0
40
2.50000
0
CIRCLE
8
CUT_INNER
10
1693.00000
20
495.00000
30
0.0
40
2.50000
0
LINE
8
CUT_INNER
10
1792.50000
20
671.50000
30
0.0
11
1798.50000
21
671.50000
31
0.0
0
LINE
8
CUT_INNER
10
1798.50000
20
671.50000
30
0.0
11
1798.50000
21
722.50000
31
0.0
0
LINE
8
CUT_INNER
10
1798.50000
20
722.50000
30
0.0
11
1792.50000
21
722.50000
31
0.0
0
LINE
8
CUT_INNER
10
1792.50000
20
722.50000
30
0.0
11
1792.50000
21
671.50000
31
0.0
0
LINE
8
CUT_INNER
10
1792.50000
20
371.50000
30
0.0
11
1798.50000
21
371.50000
31
0.0
0
LINE
8
CUT_INNER
10
1798.50000
20
371.50000
30
0.0
11
1798.50000
21
422.50000
31
0.0
0
LINE
8
CUT_INNER
10
1798.50000
20
422.50000
30
0.0
11
1792.50000
21
422.50000
31
0.0
0
LINE
8
CUT_INNER
10
1792.50000
20
422.50000
30
0.0
11
1792.50000
21
371.50000
31
0.0
0
CIRCLE
8
CUT_INNER
10
1162.00000
20
132.50000
30
0.0
40
16.00000
0
LINE
8
CUT_OUTER
10
2422.00000
20
626.00000
30
0.0
11
2424.50000
21
626.00000
31
0.0
0
LINE
8
CUT_OUTER
10
2424.50000
20
626.00000
30
0.0
11
2427.00000
21
623.50000
31
0.0
0
LINE
8
CUT_OUTER
10
2427.00000
20
623.50000
30
0.0
11
2427.00000
21
578.50000
31
0.0
0
LINE
8
CUT_OUTER
10
2427.00000
20
578.50000
30
0.0
11
2424.50000
21
576.00000
31
0.0
0
LINE
8
CUT_OUTER
10
2424.50000
20
576.00000
30
0.0
11
2422.00000
21
576.00000
31
0.0
0
LINE
8
CUT_OUTER
10
2422.00000
20
224.00000
30
0.0
11
2422.00000
21
576.00000
31
0.0
0
LINE
8
CUT_OUTER
10
2239.50000
20
224.00000
30
0.0
11
2422.00000
21
224.00000
31
0.0
0
LINE
8
CUT_OUTER
10
2239.50000
20
224.00000
30
0.0
11
2239.50000
21
217.00000
31
0.0
0
LINE
8
CUT_OUTER
10
2239.50000
20
217.00000
30
0.0
11
2236.50000
21
214.00000
31
0.0
0
LINE
8
CUT_OUTER
10
2236.50000
20
214.00000
30
0.0
11
2192.50000
21
214.00000
31
0.0
0
LINE
8
CUT_OUTER
10
2192.50000
20
214.00000
30
0.0
11
2189.50000
21
217.00000
31
0.0
0
LINE
8
CUT_OUTER
10
2189.50000
20
217.00000
30
0.0
11
2189.50000
21
224.00000
31
0.0
0
LINE
8
CUT_OUTER
10
2007.00000
20
224.00000
30
0.0
11
2189.50000
21
224.00000
31
0.0
0
LINE
8
CUT_OUTER
10
2007.00000
20
576.00000
30
0.0
11
2007.00000
21
224.00000
31
0.0
0
LINE
8
CUT_OUTER
10
2007.00000
20
576.00000
30
0.0
11
2004.50000
21
576.00000
31
0.0
0
LINE
8
CUT_OUTER
10
2004.50000
20
576.00000
30
0.0
11
2002.00000
21
578.50000
31
0.0
0
LINE
8
CUT_OUTER
10
2002.00000
20
578.50000
30
0.0
11
2002.00000
21
623.50000
31
0.0
0
LINE
8
CUT_OUTER
10
2002.00000
20
623.50000
30
0.0
11
2004.50000
21
626.00000
31
0.0
0
LINE
8
CUT_OUTER
10
2004.50000
20
626.00000
30
0.0
11
2007.00000
21
626.00000
31
0.0
0
LINE
8
CUT_OUTER
10
2007.00000
20
876.00000
30
0.0
11
2007.00000
21
626.00000
31
0.0
0
LINE
8
CUT_OUTER
10
2007.00000
20
876.00000
30
0.0
11
2004.50000
21
876.00000
31
0.0
0
LINE
8
CUT_OUTER
10
2004.50000
20
876.00000
30
0.0
11
2002.00000
21
878.50000
31
0.0
0
LINE
8
CUT_OUTER
10
2002.00000
20
878.50000
30
0.0
11
2002.00000
21
923.50000
31
0.0
0
LINE
8
CUT_OUTER
10
2002.00000
20
923.50000
30
0.0
11
2004.50000
21
926.00000
31
0.0
0
LINE
8
CUT_OUTER
10
2004.50000
20
926.00000
30
0.0
11
2007.00000
21
926.00000
31
0.0
0
LINE
8
CUT_OUTER
10
2007.00000
20
1126.00000
30
0.0
11
2007.00000
21
926.00000
31
0.0
0
LINE
8
CUT_OUTER
10
2189.50000
20
1126.00000
30
0.0
11
2007.00000
21
1126.00000
31
0.0
0
LINE
8
CUT_OUTER
10
2189.50000
20
1126.00000
30
0.0
11
2189.50000
21
1131.00000
31
0.0
0
LINE
8
CUT_OUTER
10
2189.50000
20
1131.00000
30
0.0
11
2192.50000
21
1134.00000
31
0.0
0
LINE
8
CUT_OUTER
10
2192.50000
20
1134.00000
30
0.0
11
2236.50000
21
1134.00000
31
0.0
0
LINE
8
CUT_OUTER
10
2236.50000
20
1134.00000
30
0.0
11
2239.50000
21
1131.00000
31
0.0
0
LINE
8
CUT_OUTER
10
2239.50000
20
1131.00000
30
0.0
11
2239.50000
21
1126.00000
31
0.0
0
LINE
8
CUT_OUTER
10
2422.00000
20
1126.00000
30
0.0
11
2239.50000
21
1126.00000
31
0.0
0
LINE
8
CUT_OUTER
10
2422.00000
20
926.00000
30
0.0
11
2422.00000
21
1126.00000
31
0.0
0
LINE
8
CUT_OUTER
10
2422.00000
20
926.00000
30
0.0
11
2424.50000
21
926.00000
31
0.0
0
LINE
8
CUT_OUTER
10
2424.50000
20
926.00000
30
0.0
11
2427.00000
21
923.50000
31
0.0
0
LINE
8
CUT_OUTER
10
2427.00000
20
923.50000
30
0.0
11
2427.00000
21
878.50000
31
0.0
0
LINE
8
CUT_OUTER
10
2427.00000
20
878.50000
30
0.0
11
2424.50000
21
876.00000
31
0.0
0
LINE
8
CUT_OUTER
10
2424.50000
20
876.00000
30
0.0
11
2422.00000
21
876.00000
31
0.0
0
LINE
8
CUT_OUTER
10
2422.00000
20
626.00000
30
0.0
11
2422.00000
21
876.00000
31
0.0
0
ARC
8
CUT_INNER
10
2080.00000
20
730.00000
30
0.0
40
1.65000
50
90.00000
51
270.00000
0
ARC
8
CUT_INNER
10
2080.00000
20
730.00000
30
0.0
40
1.65000
50
270.00000
51
90.00000
0
ARC
8
CUT_INNER
10
2402.00000
20
481.50000
30
0.0
40
1.65000
50
270.00000
51
90.00000
0
ARC
8
CUT_INNER
10
2402.00000
20
481.50000
30
0.0
40
1.65000
50
90.00000
51
270.00000
0
ARC
8
CUT_INNER
10
2027.00000
20
481.50000
30
0.0
40
1.65000
50
270.00000
51
90.00000
0
ARC
8
CUT_INNER
10
2027.00000
20
481.50000
30
0.0
40
1.65000
50
90.00000
51
270.00000
0
ARC
8
CUT_INNER
10
2397.00000
20
534.00000
30
0.0
40
1.65000
50
270.00000
51
90.00000
0
ARC
8
CUT_INNER
10
2397.00000
20
534.00000
30
0.0
40
1.65000
50
90.00000
51
270.00000
0
ARC
8
CUT_INNER
10
2032.00000
20
534.00000
30
0.0
40
1.65000
50
270.00000
51
90.00000
0
ARC
8
CUT_INNER
10
2032.00000
20
534.00000
30
0.0
40
1.65000
50
90.00000
51
270.00000
0
ARC
8
CUT_INNER
10
2032.00000
20
784.00000
30
0.0
40
1.65000
50
270.00000
51
90.00000
0
ARC
8
CUT_INNER
10
2032.00000
20
784.00000
30
0.0
40
1.65000
50
90.00000
51
270.00000
0
ARC
8
CUT_INNER
10
2397.00000
20
784.00000
30
0.0
40
1.65000
50
270.00000
51
90.00000
0
ARC
8
CUT_INNER
10
2397.00000
20
784.00000
30
0.0
40
1.65000
50
90.00000
51
270.00000
0
ARC
8
CUT_INNER
10
2327.00000
20
481.50000
30
0.0
40
2.10000
50
270.00000
51
90.00000
0
ARC
8
CUT_INNER
10
2327.00000
20
481.50000
30
0.0
40
2.10000
50
90.00000
51
270.00000
0
ARC
8
CUT_INNER
10
2252.00000
20
481.50000
30
0.0
40
2.10000
50
270.00000
51
90.00000
0
ARC
8
CUT_INNER
10
2252.00000
20
481.50000
30
0.0
40
2.10000
50
90.00000
51
270.00000
0
ARC
8
CUT_INNER
10
2177.00000
20
481.50000
30
0.0
40
2.10000
50
270.00000
51
90.00000
0
ARC
8
CUT_INNER
10
2177.00000
20
481.50000
30
0.0
40
2.10000
50
90.00000
51
270.00000
0
ARC
8
CUT_INNER
10
2397.00000
20
584.00000
30
0.0
40
2.10000
50
270.00000
51
90.00000
0
ARC
8
CUT_INNER
10
2397.00000
20
584.00000
30
0.0
40
2.10000
50
90.00000
51
270.00000
0
ARC
8
CUT_INNER
10
2397.00000
20
659.00000
30
0.0
40
2.10000
50
270.00000
51
90.00000
0
ARC
8
CUT_INNER
10
2397.00000
20
659.00000
30
0.0
40
2.10000
50
90.00000
51
270.00000
0
ARC
8
CUT_INNER
10
2397.00000
20
734.00000
30
0.0
40
2.10000
50
270.00000
51
90.00000
0
ARC
8
CUT_INNER
10
2397.00000
20
734.00000
30
0.0
40
2.10000
50
90.00000
51
270.00000
0
ARC
8
CUT_INNER
10
2032.00000
20
734.00000
30
0.0
40
2.10000
50
270.00000
51
90.00000
0
ARC
8
CUT_INNER
10
2032.00000
20
734.00000
30
0.0
40
2.10000
50
90.00000
51
270.00000
0
ARC
8
CUT_INNER
10
2032.00000
20
659.00000
30
0.0
40
2.10000
50
270.00000
51
90.00000
0
ARC
8
CUT_INNER
10
2032.00000
20
659.00000
30
0.0
40
2.10000
50
90.00000
51
270.00000
0
ARC
8
CUT_INNER
10
2032.00000
20
584.00000
30
0.0
40
2.10000
50
270.00000
51
90.00000
0
ARC
8
CUT_INNER
10
2032.00000
20
584.00000
30
0.0
40
2.10000
50
90.00000
51
270.00000
0
ARC
8
CUT_INNER
10
2102.00000
20
481.50000
30
0.0
40
2.10000
50
270.00000
51
90.00000
0
ARC
8
CUT_INNER
10
2102.00000
20
481.50000
30
0.0
40
2.10000
50
90.00000
51
270.00000
0
ARC
8
CUT_INNER
10
2214.50000
20
961.00000
30
0.0
40
2.10000
50
90.00000
51
270.00000
0
ARC
8
CUT_INNER
10
2214.50000
20
961.00000
30
0.0
40
2.10000
50
270.00000
51
90.00000
0
ARC
8
CUT_INNER
10
2214.50000
20
1011.00000
30
0.0
40
2.10000
50
90.00000
51
270.00000
0
ARC
8
CUT_INNER
10
2214.50000
20
1011.00000
30
0.0
40
2.10000
50
270.00000
51
90.00000
0
ARC
8
CUT_INNER
10
2187.00000
20
560.00000
30
0.0
40
1.65000
50
90.00000
51
270.00000
0
ARC
8
CUT_INNER
10
2187.00000
20
560.00000
30
0.0
40
1.65000
50
270.00000
51
90.00000
0
ARC
8
CUT_INNER
10
2222.00000
20
560.00000
30
0.0
40
1.65000
50
90.00000
51
270.00000
0
ARC
8
CUT_INNER
10
2222.00000
20
560.00000
30
0.0
40
1.65000
50
270.00000
51
90.00000
0
ARC
8
CUT_INNER
10
2257.00000
20
560.00000
30
0.0
40
1.65000
50
90.00000
51
270.00000
0
ARC
8
CUT_INNER
10
2257.00000
20
560.00000
30
0.0
40
1.65000
50
270.00000
51
90.00000
0
ARC
8
CUT_INNER
10
2152.00000
20
560.00000
30
0.0
40
1.65000
50
90.00000
51
270.00000
0
ARC
8
CUT_INNER
10
2152.00000
20
560.00000
30
0.0
40
1.65000
50
270.00000
51
90.00000
0
ARC
8
CUT_INNER
10
2080.00000
20
715.00000
30
0.0
40
1.65000
50
90.00000
51
270.00000
0
ARC
8
CUT_INNER
10
2080.00000
20
715.00000
30
0.0
40
1.65000
50
270.00000
51
90.00000
0
ARC
8
CUT_INNER
10
2349.00000
20
715.00000
30
0.0
40
1.65000
50
90.00000
51
270.00000
0
ARC
8
CUT_INNER
10
2349.00000
20
715.00000
30
0.0
40
1.65000
50
270.00000
51
90.00000
0
ARC
8
CUT_INNER
10
2349.00000
20
730.00000
30
0.0
40
1.65000
50
90.00000
51
270.00000
0
ARC
8
CUT_INNER
10
2349.00000
20
730.00000
30
0.0
40
1.65000
50
270.00000
51
90.00000
0
LINE
8
CUT_INNER
10
2114.00000
20
454.50000
30
0.0
11
2165.00000
21
454.50000
31
0.0
0
LINE
8
CUT_INNER
10
2114.00000
20
448.50000
30
0.0
11
2114.00000
21
454.50000
31
0.0
0
LINE
8
CUT_INNER
10
2165.00000
20
448.50000
30
0.0
11
2114.00000
21
448.50000
31
0.0
0
LINE
8
CUT_INNER
10
2165.00000
20
454.50000
30
0.0
11
2165.00000
21
448.50000
31
0.0
0
LINE
8
CUT_INNER
10
2264.00000
20
454.50000
30
0.0
11
2315.00000
21
454.50000
31
0.0
0
LINE
8
CUT_INNER
10
2264.00000
20
448.50000
30
0.0
11
2264.00000
21
454.50000
31
0.0
0
LINE
8
CUT_INNER
10
2315.00000
20
448.50000
30
0.0
11
2264.00000
21
448.50000
31
0.0
0
LINE
8
CUT_INNER
10
2315.00000
20
454.50000
30
0.0
11
2315.00000
21
448.50000
31
0.0
0
LINE
8
CUT_INNER
10
2296.50000
20
258.50000
30
0.0
11
2290.50000
21
258.50000
31
0.0
0
LINE
8
CUT_INNER
10
2296.50000
20
309.50000
30
0.0
11
2296.50000
21
258.50000
31
0.0
0
LINE
8
CUT_INNER
10
2290.50000
20
309.50000
30
0.0
11
2296.50000
21
309.50000
31
0.0
0
LINE
8
CUT_INNER
10
2290.50000
20
258.50000
30
0.0
11
2290.50000
21
309.50000
31
0.0
0
LINE
8
CUT_INNER
10
2138.50000
20
258.50000
30
0.0
11
2132.50000
21
258.50000
31
0.0
0
LINE
8
CUT_INNER
10
2138.50000
20
309.50000
30
0.0
11
2138.50000
21
258.50000
31
0.0
0
LINE
8
CUT_INNER
10
2132.50000
20
309.50000
30
0.0
11
2138.50000
21
309.50000
31
0.0
0
LINE
8
CUT_INNER
10
2132.50000
20
258.50000
30
0.0
11
2132.50000
21
309.50000
31
0.0
0
LINE
8
CUT_OUTER
10
12.50000
20
117.50000
30
0.0
11
15.00000
21
117.50000
31
0.0
0
LINE
8
CUT_OUTER
10
12.50000
20
117.50000
30
0.0
11
10.00000
21
120.00000
31
0.0
0
LINE
8
CUT_OUTER
10
10.00000
20
165.00000
30
0.0
11
10.00000
21
120.00000
31
0.0
0
LINE
8
CUT_OUTER
10
10.00000
20
165.00000
30
0.0
11
12.50000
21
167.50000
31
0.0
0
LINE
8
CUT_OUTER
10
15.00000
20
167.50000
30
0.0
11
12.50000
21
167.50000
31
0.0
0
LINE
8
CUT_OUTER
10
15.00000
20
267.50000
30
0.0
11
15.00000
21
167.50000
31
0.0
0
LINE
8
CUT_OUTER
10
12.50000
20
267.50000
30
0.0
11
15.00000
21
267.50000
31
0.0
0
LINE
8
CUT_OUTER
10
12.50000
20
267.50000
30
0.0
11
10.00000
21
270.00000
31
0.0
0
LINE
8
CUT_OUTER
10
10.00000
20
315.00000
30
0.0
11
10.00000
21
270.00000
31
0.0
0
LINE
8
CUT_OUTER
10
10.00000
20
315.00000
30
0.0
11
12.50000
21
317.50000
31
0.0
0
LINE
8
CUT_OUTER
10
15.00000
20
317.50000
30
0.0
11
12.50000
21
317.50000
31
0.0
0
LINE
8
CUT_OUTER
10
15.00000
20
425.00000
30
0.0
11
15.00000
21
317.50000
31
0.0
0
LINE
8
CUT_OUTER
10
135.00000
20
425.00000
30
0.0
11
15.00000
21
425.00000
31
0.0
0
LINE
8
CUT_OUTER
10
135.00000
20
10.00000
30
0.0
11
135.00000
21
425.00000
31
0.0
0
LINE
8
CUT_OUTER
10
15.00000
20
10.00000
30
0.0
11
135.00000
21
10.00000
31
0.0
0
LINE
8
CUT_OUTER
10
15.00000
20
117.50000
30
0.0
11
15.00000
21
10.00000
31
0.0
0
ARC
8
CUT_INNER
10
70.00000
20
377.50000
30
0.0
40
20.00000
50
90.00000
51
0.00000
0
ARC
8
CUT_INNER
10
70.00000
20
377.50000
30
0.0
40
20.00000
50
0.00000
51
90.00000
0
ARC
8
CUT_INNER
10
70.00000
20
57.50000
30
0.0
40
20.00000
50
90.00000
51
0.00000
0
ARC
8
CUT_INNER
10
70.00000
20
57.50000
30
0.0
40
20.00000
50
0.00000
51
90.00000
0
ARC
8
CUT_INNER
10
70.00000
20
217.50000
30
0.0
40
20.00000
50
90.00000
51
0.00000
0
ARC
8
CUT_INNER
10
70.00000
20
217.50000
30
0.0
40
20.00000
50
0.00000
51
90.00000
0
LINE
8
CUT_INNER
10
96.50000
20
299.50000
30
0.0
11
96.50000
21
293.50000
31
0.0
0
LINE
8
CUT_INNER
10
60.50000
20
299.50000
30
0.0
11
96.50000
21
299.50000
31
0.0
0
LINE
8
CUT_INNER
10
60.50000
20
293.50000
30
0.0
11
60.50000
21
299.50000
31
0.0
0
LINE
8
CUT_INNER
10
96.50000
20
293.50000
30
0.0
11
60.50000
21
293.50000
31
0.0
0
LINE
8
CUT_INNER
10
96.50000
20
141.50000
30
0.0
11
96.50000
21
135.50000
31
0.0
0
LINE
8
CUT_INNER
10
60.50000
20
141.50000
30
0.0
11
96.50000
21
141.50000
31
0.0
0
LINE
8
CUT_INNER
10
60.50000
20
135.50000
30
0.0
11
60.50000
21
141.50000
31
0.0
0
LINE
8
CUT_INNER
10
96.50000
20
135.50000
30
0.0
11
60.50000
21
135.50000
31
0.0
0
LINE
8
CUT_OUTER
10
30.02672
20
706.00000
30
0.0
11
10.00000
21
706.00000
31
0.0
0
ARC
8
CUT_OUTER
10
30.02672
20
691.00000
30
0.0
40
15.00000
50
53.31389
51
90.00000
0
LINE
8
CUT_OUTER
10
235.00000
20
557.00000
30
0.0
11
38.98818
21
703.02881
31
0.0
0
LINE
8
CUT_OUTER
10
235.00000
20
517.00000
30
0.0
11
235.00000
21
557.00000
31
0.0
0
LINE
8
CUT_OUTER
10
237.50000
20
517.00000
30
0.0
11
235.00000
21
517.00000
31
0.0
0
LINE
8
CUT_OUTER
10
237.50000
20
517.00000
30
0.0
11
240.00000
21
514.50000
31
0.0
0
LINE
8
CUT_OUTER
10
240.00000
20
484.50000
30
0.0
11
240.00000
21
514.50000
31
0.0
0
LINE
8
CUT_OUTER
10
240.00000
20
484.50000
30
0.0
11
237.50000
21
482.00000
31
0.0
0
LINE
8
CUT_OUTER
10
235.00000
20
482.00000
30
0.0
11
237.50000
21
482.00000
31
0.0
0
LINE
8
CUT_OUTER
10
235.00000
20
437.00000
30
0.0
11
235.00000
21
482.00000
31
0.0
0
LINE
8
CUT_OUTER
10
95.00000
20
437.00000
30
0.0
11
235.00000
21
437.00000
31
0.0
0
LINE
8
CUT_OUTER
10
95.00000
20
434.50000
30
0.0
11
95.00000
21
437.00000
31
0.0
0
LINE
8
CUT_OUTER
10
95.00000
20
434.50000
30
0.0
11
92.50000
21
432.00000
31
0.0
0
LINE
8
CUT_OUTER
10
47.50000
20
432.00000
30
0.0
11
92.50000
21
432.00000
31
0.0
0
LINE
8
CUT_OUTER
10
47.50000
20
432.00000
30
0.0
11
45.00000
21
434.50000
31
0.0
0
LINE
8
CUT_OUTER
10
45.00000
20
437.00000
30
0.0
11
45.00000
21
434.50000
31
0.0
0
LINE
8
CUT_OUTER
10
10.00000
20
437.00000
30
0.0
11
45.00000
21
437.00000
31
0.0
0
LINE
8
CUT_OUTER
10
10.00000
20
706.00000
30
0.0
11
10.00000
21
437.00000
31
0.0
0
ARC
8
CUT_INNER
10
122.50000
20
513.00000
30
0.0
40
25.00000
50
270.00000
51
180.00000
0
ARC
8
CUT_INNER
10
122.50000
20
513.00000
30
0.0
40
25.00000
50
180.00000
51
270.00000
0
ENDSEC
0
EOF
