0
SECTION
2
ENTITIES
0
LINE
8
SHEET
10
0.00000
20
0.00000
30
0.0
11
2440.00000
21
0.00000
31
0.0
0
LINE
8
SHEET
10
2440.00000
20
0.00000
30
0.0
11
2440.00000
21
1220.00000
31
0.0
0
LINE
8
SHEET
10
2440.00000
20
1220.00000
30
0.0
11
0.00000
21
1220.00000
31
0.0
0
LINE
8
SHEET
10
0.00000
20
1220.00000
30
0.0
11
0.00000
21
0.00000
31
0.0
0
LINE
8
CUT_OUTER
10
835.00000
20
15.00000
30
0.0
11
835.00000
21
430.00000
31
0.0
0
LINE
8
CUT_OUTER
10
561.50000
20
15.00000
30
0.0
11
835.00000
21
15.00000
31
0.0
0
LINE
8
CUT_OUTER
10
561.50000
20
10.00000
30
0.0
11
561.50000
21
15.00000
31
0.0
0
LINE
8
CUT_OUTER
10
511.50000
20
10.00000
30
0.0
11
561.50000
21
10.00000
31
0.0
0
LINE
8
CUT_OUTER
10
511.50000
20
15.00000
30
0.0
11
511.50000
21
10.00000
31
0.0
0
LINE
8
CUT_OUTER
10
260.50000
20
15.00000
30
0.0
11
511.50000
21
15.00000
31
0.0
0
LINE
8
CUT_OUTER
10
260.50000
20
10.00000
30
0.0
11
260.50000
21
15.00000
31
0.0
0
LINE
8
CUT_OUTER
10
210.50000
20
10.00000
30
0.0
11
260.50000
21
10.00000
31
0.0
0
LINE
8
CUT_OUTER
10
210.50000
20
15.00000
30
0.0
11
210.50000
21
10.00000
31
0.0
0
LINE
8
CUT_OUTER
10
10.00000
20
15.00000
30
0.0
11
210.50000
21
15.00000
31
0.0
0
LINE
8
CUT_OUTER
10
10.00000
20
430.00000
30
0.0
11
10.00000
21
15.00000
31
0.0
0
LINE
8
CUT_OUTER
10
210.50000
20
430.00000
30
0.0
11
10.00000
21
430.00000
31
0.0
0
LINE
8
CUT_OUTER
10
210.50000
20
435.00000
30
0.0
11
210.50000
21
430.00000
31
0.0
0
LINE
8
CUT_OUTER
10
260.50000
20
435.00000
30
0.0
11
210.50000
21
435.00000
31
0.0
0
LINE
8
CUT_OUTER
10
260.50000
20
430.00000
30
0.0
11
260.50000
21
435.00000
31
0.0
0
LINE
8
CUT_OUTER
10
511.50000
20
430.00000
30
0.0
11
260.50000
21
430.00000
31
0.0
0
LINE
8
CUT_OUTER
10
511.50000
20
435.00000
30
0.0
11
511.50000
21
430.00000
31
0.0
0
LINE
8
CUT_OUTER
10
561.50000
20
435.00000
30
0.0
11
511.50000
21
435.00000
31
0.0
0
LINE
8
CUT_OUTER
10
561.50000
20
430.00000
30
0.0
11
561.50000
21
435.00000
31
0.0
0
LINE
8
CUT_OUTER
10
835.00000
20
430.00000
30
0.0
11
561.50000
21
430.00000
31
0.0
0
CIRCLE
8
CUT_INNER
10
28.50000
20
397.50000
30
0.0
40
2.50000
0
CIRCLE
8
CUT_INNER
10
448.50000
20
47.50000
30
0.0
40
2.50000
0
CIRCLE
8
CUT_INNER
10
28.50000
20
47.50000
30
0.0
40
2.50000
0
CIRCLE
8
CUT_INNER
10
448.50000
20
397.50000
30
0.0
40
2.50000
0
CIRCLE
8
CUT_INNER
10
238.50000
20
397.50000
30
0.0
40
2.50000
0
CIRCLE
8
CUT_INNER
10
238.50000
20
47.50000
30
0.0
40
2.50000
0
LINE
8
CUT_OUTER
10
844.00000
20
265.50000
30
0.0
11
844.00000
21
220.50000
31
0.0
0
LINE
8
CUT_OUTER
10
844.00000
20
265.50000
30
0.0
11
846.50000
21
268.00000
31
0.0
0
LINE
8
CUT_OUTER
10
849.00000
20
268.00000
30
0.0
11
846.50000
21
268.00000
31
0.0
0
LINE
8
CUT_OUTER
10
849.00000
20
268.00000
30
0.0
11
849.00000
21
518.00000
31
0.0
0
LINE
8
CUT_OUTER
10
846.50000
20
518.00000
30
0.0
11
849.00000
21
518.00000
31
0.0
0
LINE
8
CUT_OUTER
10
846.50000
20
518.00000
30
0.0
11
844.00000
21
520.50000
31
0.0
0
LINE
8
CUT_OUTER
10
844.00000
20
565.50000
30
0.0
11
844.00000
21
520.50000
31
0.0
0
LINE
8
CUT_OUTER
10
844.00000
20
565.50000
30
0.0
11
846.50000
21
568.00000
31
0.0
0
LINE
8
CUT_OUTER
10
849.00000
20
568.00000
30
0.0
11
846.50000
21
568.00000
31
0.0
0
LINE
8
CUT_OUTER
10
849.00000
20
568.00000
30
0.0
11
849.00000
21
816.00000
31
0.0
0
LINE
8
CUT_OUTER
10
849.00000
20
816.00000
30
0.0
11
1264.00000
21
816.00000
31
0.0
0
LINE
8
CUT_OUTER
10
1264.00000
20
816.00000
30
0.0
11
1264.00000
21
568.00000
31
0.0
0
LINE
8
CUT_OUTER
10
1266.50000
20
568.00000
30
0.0
11
1264.00000
21
568.00000
31
0.0
0
LINE
8
CUT_OUTER
10
1266.50000
20
568.00000
30
0.0
11
1269.00000
21
565.50000
31
0.0
0
LINE
8
CUT_OUTER
10
1269.00000
20
520.50000
30
0.0
11
1269.00000
21
565.50000
31
0.0
0
LINE
8
CUT_OUTER
10
1269.00000
20
520.50000
30
0.0
11
1266.50000
21
518.00000
31
0.0
0
LINE
8
CUT_OUTER
10
1264.00000
20
518.00000
30
0.0
11
1266.50000
21
518.00000
31
0.0
0
LINE
8
CUT_OUTER
10
1264.00000
20
518.00000
30
0.0
11
1264.00000
21
268.00000
31
0.0
0
LINE
8
CUT_OUTER
10
1266.50000
20
268.00000
30
0.0
11
1264.00000
21
268.00000
31
0.0
0
LINE
8
CUT_OUTER
10
1266.50000
20
268.00000
30
0.0
11
1269.00000
21
265.50000
31
0.0
0
LINE
8
CUT_OUTER
10
1269.00000
20
220.50000
30
0.0
11
1269.00000
21
265.50000
31
0.0
0
LINE
8
CUT_OUTER
10
1269.00000
20
220.50000
30
0.0
11
1266.50000
21
218.00000
31
0.0
0
LINE
8
CUT_OUTER
10
1264.00000
20
218.00000
30
0.0
11
1266.50000
21
218.00000
31
0.0
0
LINE
8
CUT_OUTER
10
1264.00000
20
218.00000
30
0.0
11
1264.00000
21
18.00000
31
0.0
0
LINE
8
CUT_OUTER
10
1264.00000
20
18.00000
30
0.0
11
1156.50000
21
18.00000
31
0.0
0
LINE
8
CUT_OUTER
10
1156.50000
20
18.00000
30
0.0
11
1156.50000
21
12.50000
31
0.0
0
LINE
8
CUT_OUTER
10
1156.50000
20
12.50000
30
0.0
11
1154.00000
21
10.00000
31
0.0
0
LINE
8
CUT_OUTER
10
1154.00000
20
10.00000
30
0.0
11
1109.00000
21
10.00000
31
0.0
0
LINE
8
CUT_OUTER
10
1109.00000
20
10.00000
30
0.0
11
1106.50000
21
12.50000
31
0.0
0
LINE
8
CUT_OUTER
10
1106.50000
20
12.50000
30
0.0
11
1106.50000
21
18.00000
31
0.0
0
LINE
8
CUT_OUTER
10
1106.50000
20
18.00000
30
0.0
11
1006.50000
21
18.00000
31
0.0
0
LINE
8
CUT_OUTER
10
1006.50000
20
18.00000
30
0.0
11
1006.50000
21
12.50000
31
0.0
0
LINE
8
CUT_OUTER
10
1006.50000
20
12.50000
30
0.0
11
1004.00000
21
10.00000
31
0.0
0
LINE
8
CUT_OUTER
10
1004.00000
20
10.00000
30
0.0
11
959.00000
21
10.00000
31
0.0
0
LINE
8
CUT_OUTER
10
959.00000
20
10.00000
30
0.0
11
956.50000
21
12.50000
31
0.0
0
LINE
8
CUT_OUTER
10
956.50000
20
12.50000
30
0.0
11
956.50000
21
18.00000
31
0.0
0
LINE
8
CUT_OUTER
10
956.50000
20
18.00000
30
0.0
11
849.00000
21
18.00000
31
0.0
0
LINE
8
CUT_OUTER
10
849.00000
20
18.00000
30
0.0
11
849.00000
21
218.00000
31
0.0
0
LINE
8
CUT_OUTER
10
846.50000
20
218.00000
30
0.0
11
849.00000
21
218.00000
31
0.0
0
LINE
8
CUT_OUTER
10
846.50000
20
218.00000
30
0.0
11
844.00000
21
220.50000
31
0.0
0
ENDSEC
0
EOF
