0
SECTION
2
ENTITIES
0
LINE
8
SHEET
10
0.00000
20
0.00000
30
0.0
11
2440.00000
21
0.00000
31
0.0
0
LINE
8
SHEET
10
2440.00000
20
0.00000
30
0.0
11
2440.00000
21
1220.00000
31
0.0
0
LINE
8
SHEET
10
2440.00000
20
1220.00000
30
0.0
11
0.00000
21
1220.00000
31
0.0
0
LINE
8
SHEET
10
0.00000
20
1220.00000
30
0.0
11
0.00000
21
0.00000
31
0.0
0
LINE
8
CUT_OUTER
10
445.00000
20
10.00000
30
0.0
11
860.00000
21
10.00000
31
0.0
0
LINE
8
CUT_OUTER
10
445.00000
20
283.50000
30
0.0
11
445.00000
21
10.00000
31
0.0
0
LINE
8
CUT_OUTER
10
440.00000
20
283.50000
30
0.0
11
445.00000
21
283.50000
31
0.0
0
LINE
8
CUT_OUTER
10
440.00000
20
333.50000
30
0.0
11
440.00000
21
283.50000
31
0.0
0
LINE
8
CUT_OUTER
10
445.00000
20
333.50000
30
0.0
11
440.00000
21
333.50000
31
0.0
0
LINE
8
CUT_OUTER
10
445.00000
20
584.50000
30
0.0
11
445.00000
21
333.50000
31
0.0
0
LINE
8
CUT_OUTER
10
440.00000
20
584.50000
30
0.0
11
445.00000
21
584.50000
31
0.0
0
LINE
8
CUT_OUTER
10
440.00000
20
634.50000
30
0.0
11
440.00000
21
584.50000
31
0.0
0
LINE
8
CUT_OUTER
10
445.00000
20
634.50000
30
0.0
11
440.00000
21
634.50000
31
0.0
0
LINE
8
CUT_OUTER
10
445.00000
20
835.00000
30
0.0
11
445.00000
21
634.50000
31
0.0
0
LINE
8
CUT_OUTER
10
860.00000
20
835.00000
30
0.0
11
445.00000
21
835.00000
31
0.0
0
LINE
8
CUT_OUTER
10
860.00000
20
634.50000
30
0.0
11
860.00000
21
835.00000
31
0.0
0
LINE
8
CUT_OUTER
10
865.00000
20
634.50000
30
0.0
11
860.00000
21
634.50000
31
0.0
0
LINE
8
CUT_OUTER
10
865.00000
20
584.50000
30
0.0
11
865.00000
21
634.50000
31
0.0
0
LINE
8
CUT_OUTER
10
860.00000
20
584.50000
30
0.0
11
865.00000
21
584.50000
31
0.0
0
LINE
8
CUT_OUTER
10
860.00000
20
333.50000
30
0.0
11
860.00000
21
584.50000
31
0.0
0
LINE
8
CUT_OUTER
10
865.00000
20
333.50000
30
0.0
11
860.00000
21
333.50000
31
0.0
0
LINE
8
CUT_OUTER
10
865.00000
20
283.50000
30
0.0
11
865.00000
21
333.50000
31
0.0
0
LINE
8
CUT_OUTER
10
860.00000
20
283.50000
30
0.0
11
865.00000
21
283.50000
31
0.0
0
LINE
8
CUT_OUTER
10
860.00000
20
10.00000
30
0.0
11
860.00000
21
283.50000
31
0.0
0
CIRCLE
8
CUT_INNER
10
827.50000
20
816.50000
30
0.0
40
2.50000
0
CIRCLE
8
CUT_INNER
10
477.50000
20
396.50000
30
0.0
40
2.50000
0
CIRCLE
8
CUT_INNER
10
477.50000
20
816.50000
30
0.0
40
2.50000
0
CIRCLE
8
CUT_INNER
10
827.50000
20
396.50000
30
0.0
40
2.50000
0
CIRCLE
8
CUT_INNER
10
827.50000
20
606.50000
30
0.0
40
2.50000
0
CIRCLE
8
CUT_INNER
10
477.50000
20
606.50000
30
0.0
40
2.50000
0
LINE
8
CUT_OUTER
10
15.00000
20
518.00000
30
0.0
11
12.50000
21
518.00000
31
0.0
0
LINE
8
CUT_OUTER
10
12.50000
20
518.00000
30
0.0
11
10.00000
21
520.50000
31
0.0
0
LINE
8
CUT_OUTER
10
10.00000
20
520.50000
30
0.0
11
10.00000
21
565.50000
31
0.0
0
LINE
8
CUT_OUTER
10
10.00000
20
565.50000
30
0.0
11
12.50000
21
568.00000
31
0.0
0
LINE
8
CUT_OUTER
10
12.50000
20
568.00000
30
0.0
11
15.00000
21
568.00000
31
0.0
0
LINE
8
CUT_OUTER
10
15.00000
20
920.00000
30
0.0
11
15.00000
21
568.00000
31
0.0
0
LINE
8
CUT_OUTER
10
197.50000
20
920.00000
30
0.0
11
15.00000
21
920.00000
31
0.0
0
LINE
8
CUT_OUTER
10
197.50000
20
920.00000
30
0.0
11
197.50000
21
927.00000
31
0.0
0
LINE
8
CUT_OUTER
10
197.50000
20
927.00000
30
0.0
11
200.50000
21
930.00000
31
0.0
0
LINE
8
CUT_OUTER
10
200.50000
20
930.00000
30
0.0
11
244.50000
21
930.00000
31
0.0
0
LINE
8
CUT_OUTER
10
244.50000
20
930.00000
30
0.0
11
247.50000
21
927.00000
31
0.0
0
LINE
8
CUT_OUTER
10
247.50000
20
927.00000
30
0.0
11
247.50000
21
920.00000
31
0.0
0
LINE
8
CUT_OUTER
10
430.00000
20
920.00000
30
0.0
11
247.50000
21
920.00000
31
0.0
0
LINE
8
CUT_OUTER
10
430.00000
20
568.00000
30
0.0
11
430.00000
21
920.00000
31
0.0
0
LINE
8
CUT_OUTER
10
430.00000
20
568.00000
30
0.0
11
432.50000
21
568.00000
31
0.0
0
LINE
8
CUT_OUTER
10
432.50000
20
568.00000
30
0.0
11
435.00000
21
565.50000
31
0.0
0
LINE
8
CUT_OUTER
10
435.00000
20
565.50000
30
0.0
11
435.00000
21
520.50000
31
0.0
0
LINE
8
CUT_OUTER
10
435.00000
20
520.50000
30
0.0
11
432.50000
21
518.00000
31
0.0
0
LINE
8
CUT_OUTER
10
432.50000
20
518.00000
30
0.0
11
430.00000
21
518.00000
31
0.0
0
LINE
8
CUT_OUTER
10
430.00000
20
268.00000
30
0.0
11
430.00000
21
518.00000
31
0.0
0
LINE
8
CUT_OUTER
10
430.00000
20
268.00000
30
0.0
11
432.50000
21
268.00000
31
0.0
0
LINE
8
CUT_OUTER
10
432.50000
20
268.00000
30
0.0
11
435.00000
21
265.50000
31
0.0
0
LINE
8
CUT_OUTER
10
435.00000
20
265.50000
30
0.0
11
435.00000
21
220.50000
31
0.0
0
LINE
8
CUT_OUTER
10
435.00000
20
220.50000
30
0.0
11
432.50000
21
218.00000
31
0.0
0
LINE
8
CUT_OUTER
10
432.50000
20
218.00000
30
0.0
11
430.00000
21
218.00000
31
0.0
0
LINE
8
CUT_OUTER
10
430.00000
20
18.00000
30
0.0
11
430.00000
21
218.00000
31
0.0
0
LINE
8
CUT_OUTER
10
247.50000
20
18.00000
30
0.0
11
430.00000
21
18.00000
31
0.0
0
LINE
8
CUT_OUTER
10
247.50000
20
18.00000
30
0.0
11
247.50000
21
13.00000
31
0.0
0
LINE
8
CUT_OUTER
10
247.50000
20
13.00000
30
0.0
11
244.50000
21
10.00000
31
0.0
0
LINE
8
CUT_OUTER
10
244.50000
20
10.00000
30
0.0
11
200.50000
21
10.00000
31
0.0
0
LINE
8
CUT_OUTER
10
200.50000
20
10.00000
30
0.0
11
197.50000
21
13.00000
31
0.0
0
LINE
8
CUT_OUTER
10
197.50000
20
13.00000
30
0.0
11
197.50000
21
18.00000
31
0.0
0
LINE
8
CUT_OUTER
10
15.00000
20
18.00000
30
0.0
11
197.50000
21
18.00000
31
0.0
0
LINE
8
CUT_OUTER
10
15.00000
20
218.00000
30
0.0
11
15.00000
21
18.00000
31
0.0
0
LINE
8
CUT_OUTER
10
15.00000
20
218.00000
30
0.0
11
12.50000
21
218.00000
31
0.0
0
LINE
8
CUT_OUTER
10
12.50000
20
218.00000
30
0.0
11
10.00000
21
220.50000
31
0.0
0
LINE
8
CUT_OUTER
10
10.00000
20
220.50000
30
0.0
11
10.00000
21
265.50000
31
0.0
0
LINE
8
CUT_OUTER
10
10.00000
20
265.50000
30
0.0
11
12.50000
21
268.00000
31
0.0
0
LINE
8
CUT_OUTER
10
12.50000
20
268.00000
30
0.0
11
15.00000
21
268.00000
31
0.0
0
LINE
8
CUT_OUTER
10
15.00000
20
518.00000
30
0.0
11
15.00000
21
268.00000
31
0.0
0
ARC
8
CUT_INNER
10
357.00000
20
414.00000
30
0.0
40
1.65000
50
270.00000
51
90.00000
0
ARC
8
CUT_INNER
10
357.00000
20
414.00000
30
0.0
40
1.65000
50
90.00000
51
270.00000
0
ARC
8
CUT_INNER
10
35.00000
20
662.50000
30
0.0
40
1.65000
50
90.00000
51
270.00000
0
ARC
8
CUT_INNER
10
35.00000
20
662.50000
30
0.0
40
1.65000
50
270.00000
51
90.00000
0
ARC
8
CUT_INNER
10
410.00000
20
662.50000
30
0.0
40
1.65000
50
90.00000
51
270.00000
0
ARC
8
CUT_INNER
10
410.00000
20
662.50000
30
0.0
40
1.65000
50
270.00000
51
90.00000
0
ARC
8
CUT_INNER
10
40.00000
20
610.00000
30
0.0
40
1.65000
50
90.00000
51
270.00000
0
ARC
8
CUT_INNER
10
40.00000
20
610.00000
30
0.0
40
1.65000
50
270.00000
51
90.00000
0
ARC
8
CUT_INNER
10
405.00000
20
610.00000
30
0.0
40
1.65000
50
90.00000
51
270.00000
0
ARC
8
CUT_INNER
10
405.00000
20
610.00000
30
0.0
40
1.65000
50
270.00000
51
90.00000
0
ARC
8
CUT_INNER
10
405.00000
20
360.00000
30
0.0
40
1.65000
50
90.00000
51
270.00000
0
ARC
8
CUT_INNER
10
405.00000
20
360.00000
30
0.0
40
1.65000
50
270.00000
51
90.00000
0
ARC
8
CUT_INNER
10
40.00000
20
360.00000
30
0.0
40
1.65000
50
90.00000
51
270.00000
0
ARC
8
CUT_INNER
10
40.00000
20
360.00000
30
0.0
40
1.65000
50
270.00000
51
90.00000
0
ARC
8
CUT_INNER
10
110.00000
20
662.50000
30
0.0
40
2.10000
50
90.00000
51
270.00000
0
ARC
8
CUT_INNER
10
110.00000
20
662.50000
30
0.0
40
2.10000
50
270.00000
51
90.00000
0
ARC
8
CUT_INNER
10
185.00000
20
662.50000
30
0.0
40
2.10000
50
90.00000
51
270.00000
0
ARC
8
CUT_INNER
10
185.00000
20
662.50000
30
0.0
40
2.10000
50
270.00000
51
90.00000
0
ARC
8
CUT_INNER
10
260.00000
20
662.50000
30
0.0
40
2.10000
50
90.00000
51
270.00000
0
ARC
8
CUT_INNER
10
260.00000
20
662.50000
30
0.0
40
2.10000
50
270.00000
51
90.00000
0
ARC
8
CUT_INNER
10
40.00000
20
560.00000
30
0.0
40
2.10000
50
90.00000
51
270.00000
0
ARC
8
CUT_INNER
10
40.00000
20
560.00000
30
0.0
40
2.10000
50
270.00000
51
90.00000
0
ARC
8
CUT_INNER
10
40.00000
20
485.00000
30
0.0
40
2.10000
50
90.00000
51
270.00000
0
ARC
8
CUT_INNER
10
40.00000
20
485.00000
30
0.0
40
2.10000
50
270.00000
51
90.00000
0
ARC
8
CUT_INNER
10
40.00000
20
410.00000
30
0.0
40
2.10000
50
90.00000
51
270.00000
0
ARC
8
CUT_INNER
10
40.00000
20
410.00000
30
0.0
40
2.10000
50
270.00000
51
90.00000
0
ARC
8
CUT_INNER
10
405.00000
20
410.00000
30
0.0
40
2.10000
50
90.00000
51
270.00000
0
ARC
8
CUT_INNER
10
405.00000
20
410.00000
30
0.0
40
2.10000
50
270.00000
51
90.00000
0
ARC
8
CUT_INNER
10
405.00000
20
485.00000
30
0.0
40
2.10000
50
90.00000
51
270.00000
0
ARC
8
CUT_INNER
10
405.00000
20
485.00000
30
0.0
40
2.10000
50
270.00000
51
90.00000
0
ARC
8
CUT_INNER
10
405.00000
20
560.00000
30
0.0
40
2.10000
50
90.00000
51
270.00000
0
ARC
8
CUT_INNER
10
405.00000
20
560.00000
30
0.0
40
2.10000
50
270.00000
51
90.00000
0
ARC
8
CUT_INNER
10
335.00000
20
662.50000
30
0.0
40
2.10000
50
90.00000
51
270.00000
0
ARC
8
CUT_INNER
10
335.00000
20
662.50000
30
0.0
40
2.10000
50
270.00000
51
90.00000
0
ARC
8
CUT_INNER
10
222.50000
20
183.00000
30
0.0
40
2.10000
50
270.00000
51
90.00000
0
ARC
8
CUT_INNER
10
222.50000
20
183.00000
30
0.0
40
2.10000
50
90.00000
51
270.00000
0
ARC
8
CUT_INNER
10
222.50000
20
133.00000
30
0.0
40
2.10000
50
270.00000
51
90.00000
0
ARC
8
CUT_INNER
10
222.50000
20
133.00000
30
0.0
40
2.10000
50
90.00000
51
270.00000
0
ARC
8
CUT_INNER
10
250.00000
20
584.00000
30
0.0
40
1.65000
50
270.00000
51
90.00000
0
ARC
8
CUT_INNER
10
250.00000
20
584.00000
30
0.0
40
1.65000
50
90.00000
51
270.00000
0
ARC
8
CUT_INNER
10
215.00000
20
584.00000
30
0.0
40
1.65000
50
270.00000
51
90.00000
0
ARC
8
CUT_INNER
10
215.00000
20
584.00000
30
0.0
40
1.65000
50
90.00000
51
270.00000
0
ARC
8
CUT_INNER
10
180.00000
20
584.00000
30
0.0
40
1.65000
50
270.00000
51
90.00000
0
ARC
8
CUT_INNER
10
180.00000
20
584.00000
30
0.0
40
1.65000
50
90.00000
51
270.00000
0
ARC
8
CUT_INNER
10
285.00000
20
584.00000
30
0.0
40
1.65000
50
270.00000
51
90.00000
0
ARC
8
CUT_INNER
10
285.00000
20
584.00000
30
0.0
40
1.65000
50
90.00000
51
270.00000
0
ARC
8
CUT_INNER
10
357.00000
20
429.00000
30
0.0
40
1.65000
50
270.00000
51
90.00000
0
ARC
8
CUT_INNER
10
357.00000
20
429.00000
30
0.0
40
1.65000
50
90.00000
51
270.00000
0
ARC
8
CUT_INNER
10
88.00000
20
429.00000
30
0.0
40
1.65000
50
270.00000
51
90.00000
0
ARC
8
CUT_INNER
10
88.00000
20
429.00000
30
0.0
40
1.65000
50
90.00000
51
270.00000
0
ARC
8
CUT_INNER
10
88.00000
20
414.00000
30
0.0
40
1.65000
50
270.00000
51
90.00000
0
ARC
8
CUT_INNER
10
88.00000
20
414.00000
30
0.0
40
1.65000
50
90.00000
51
270.00000
0
LINE
8
CUT_INNER
10
323.00000
20
689.50000
30
0.0
11
272.00000
21
689.50000
31
0.0
0
LINE
8
CUT_INNER
10
323.00000
20
695.50000
30
0.0
11
323.00000
21
689.50000
31
0.0
0
LINE
8
CUT_INNER
10
272.00000
20
695.50000
30
0.0
11
323.00000
21
695.50000
31
0.0
0
LINE
8
CUT_INNER
10
272.00000
20
689.50000
30
0.0
11
272.00000
21
695.50000
31
0.0
0
LINE
8
CUT_INNER
10
173.00000
20
689.50000
30
0.0
11
122.00000
21
689.50000
31
0.0
0
LINE
8
CUT_INNER
10
173.00000
20
695.50000
30
0.0
11
173.00000
21
689.50000
31
0.0
0
LINE
8
CUT_INNER
10
122.00000
20
695.50000
30
0.0
11
173.00000
21
695.50000
31
0.0
0
LINE
8
CUT_INNER
10
122.00000
20
689.50000
30
0.0
11
122.00000
21
695.50000
31
0.0
0
LINE
8
CUT_INNER
10
140.50000
20
885.50000
30
0.0
11
146.50000
21
885.50000
31
0.0
0
LINE
8
CUT_INNER
10
140.50000
20
834.50000
30
0.0
11
140.50000
21
885.50000
31
0.0
0
LINE
8
CUT_INNER
10
146.50000
20
834.50000
30
0.0
11
140.50000
21
834.50000
31
0.0
0
LINE
8
CUT_INNER
10
146.50000
20
885.50000
30
0.0
11
146.50000
21
834.50000
31
0.0
0
LINE
8
CUT_INNER
10
298.50000
20
885.50000
30
0.0
11
304.50000
21
885.50000
31
0.0
0
LINE
8
CUT_INNER
10
298.50000
20
834.50000
30
0.0
11
298.50000
21
885.50000
31
0.0
0
LINE
8
CUT_INNER
10
304.50000
20
834.50000
30
0.0
11
298.50000
21
834.50000
31
0.0
0
LINE
8
CUT_INNER
10
304.50000
20
885.50000
30
0.0
11
304.50000
21
834.50000
31
0.0
0
LINE
8
CUT_OUTER
10
870.00000
20
265.50000
30
0.0
11
870.00000
21
220.50000
31
0.0
0
LINE
8
CUT_OUTER
10
870.00000
20
265.50000
30
0.0
11
872.50000
21
268.00000
31
0.0
0
LINE
8
CUT_OUTER
10
875.00000
20
268.00000
30
0.0
11
872.50000
21
268.00000
31
0.0
0
LINE
8
CUT_OUTER
10
875.00000
20
268.00000
30
0.0
11
875.00000
21
518.00000
31
0.0
0
LINE
8
CUT_OUTER
10
872.50000
20
518.00000
30
0.0
11
875.00000
21
518.00000
31
0.0
0
LINE
8
CUT_OUTER
10
872.50000
20
518.00000
30
0.0
11
870.00000
21
520.50000
31
0.0
0
LINE
8
CUT_OUTER
10
870.00000
20
565.50000
30
0.0
11
870.00000
21
520.50000
31
0.0
0
LINE
8
CUT_OUTER
10
870.00000
20
565.50000
30
0.0
11
872.50000
21
568.00000
31
0.0
0
LINE
8
CUT_OUTER
10
875.00000
20
568.00000
30
0.0
11
872.50000
21
568.00000
31
0.0
0
LINE
8
CUT_OUTER
10
875.00000
20
568.00000
30
0.0
11
875.00000
21
816.00000
31
0.0
0
LINE
8
CUT_OUTER
10
875.00000
20
816.00000
30
0.0
11
1290.00000
21
816.00000
31
0.0
0
LINE
8
CUT_OUTER
10
1290.00000
20
816.00000
30
0.0
11
1290.00000
21
568.00000
31
0.0
0
LINE
8
CUT_OUTER
10
1292.50000
20
568.00000
30
0.0
11
1290.00000
21
568.00000
31
0.0
0
LINE
8
CUT_OUTER
10
1292.50000
20
568.00000
30
0.0
11
1295.00000
21
565.50000
31
0.0
0
LINE
8
CUT_OUTER
10
1295.00000
20
520.50000
30
0.0
11
1295.00000
21
565.50000
31
0.0
0
LINE
8
CUT_OUTER
10
1295.00000
20
520.50000
30
0.0
11
1292.50000
21
518.00000
31
0.0
0
LINE
8
CUT_OUTER
10
1290.00000
20
518.00000
30
0.0
11
1292.50000
21
518.00000
31
0.0
0
LINE
8
CUT_OUTER
10
1290.00000
20
518.00000
30
0.0
11
1290.00000
21
268.00000
31
0.0
0
LINE
8
CUT_OUTER
10
1292.50000
20
268.00000
30
0.0
11
1290.00000
21
268.00000
31
0.0
0
LINE
8
CUT_OUTER
10
1292.50000
20
268.00000
30
0.0
11
1295.00000
21
265.50000
31
0.0
0
LINE
8
CUT_OUTER
10
1295.00000
20
220.50000
30
0.0
11
1295.00000
21
265.50000
31
0.0
0
LINE
8
CUT_OUTER
10
1295.00000
20
220.50000
30
0.0
11
1292.50000
21
218.00000
31
0.0
0
LINE
8
CUT_OUTER
10
1290.00000
20
218.00000
30
0.0
11
1292.50000
21
218.00000
31
0.0
0
LINE
8
CUT_OUTER
10
1290.00000
20
218.00000
30
0.0
11
1290.00000
21
18.00000
31
0.0
0
LINE
8
CUT_OUTER
10
1290.00000
20
18.00000
30
0.0
11
1182.50000
21
18.00000
31
0.0
0
LINE
8
CUT_OUTER
10
1182.50000
20
18.00000
30
0.0
11
1182.50000
21
12.50000
31
0.0
0
LINE
8
CUT_OUTER
10
1182.50000
20
12.50000
30
0.0
11
1180.00000
21
10.00000
31
0.0
0
LINE
8
CUT_OUTER
10
1180.00000
20
10.00000
30
0.0
11
1135.00000
21
10.00000
31
0.0
0
LINE
8
CUT_OUTER
10
1135.00000
20
10.00000
30
0.0
11
1132.50000
21
12.50000
31
0.0
0
LINE
8
CUT_OUTER
10
1132.50000
20
12.50000
30
0.0
11
1132.50000
21
18.00000
31
0.0
0
LINE
8
CUT_OUTER
10
1132.50000
20
18.00000
30
0.0
11
1032.50000
21
18.00000
31
0.0
0
LINE
8
CUT_OUTER
10
1032.50000
20
18.00000
30
0.0
11
1032.50000
21
12.50000
31
0.0
0
LINE
8
CUT_OUTER
10
1032.50000
20
12.50000
30
0.0
11
1030.00000
21
10.00000
31
0.0
0
LINE
8
CUT_OUTER
10
1030.00000
20
10.00000
30
0.0
11
985.00000
21
10.00000
31
0.0
0
LINE
8
CUT_OUTER
10
985.00000
20
10.00000
30
0.0
11
982.50000
21
12.50000
31
0.0
0
LINE
8
CUT_OUTER
10
982.50000
20
12.50000
30
0.0
11
982.50000
21
18.00000
31
0.0
0
LINE
8
CUT_OUTER
10
982.50000
20
18.00000
30
0.0
11
875.00000
21
18.00000
31
0.0
0
LINE
8
CUT_OUTER
10
875.00000
20
18.00000
30
0.0
11
875.00000
21
218.00000
31
0.0
0
LINE
8
CUT_OUTER
10
872.50000
20
218.00000
30
0.0
11
875.00000
21
218.00000
31
0.0
0
LINE
8
CUT_OUTER
10
872.50000
20
218.00000
30
0.0
11
870.00000
21
220.50000
31
0.0
0
ENDSEC
0
EOF
