0
SECTION
2
ENTITIES
0
LINE
8
SHEET
10
0.00000
20
0.00000
30
0.0
11
2440.00000
21
0.00000
31
0.0
0
LINE
8
SHEET
10
2440.00000
20
0.00000
30
0.0
11
2440.00000
21
1220.00000
31
0.0
0
LINE
8
SHEET
10
2440.00000
20
1220.00000
30
0.0
11
0.00000
21
1220.00000
31
0.0
0
LINE
8
SHEET
10
0.00000
20
1220.00000
30
0.0
11
0.00000
21
0.00000
31
0.0
0
LINE
8
CUT_OUTER
10
162.00000
20
30.02672
30
0.0
11
162.00000
21
10.00000
31
0.0
0
ARC
8
CUT_OUTER
10
177.00000
20
30.02672
30
0.0
40
15.00000
50
143.31389
51
180.00000
0
LINE
8
CUT_OUTER
10
311.00000
20
235.00000
30
0.0
11
164.97119
21
38.98818
31
0.0
0
LINE
8
CUT_OUTER
10
351.00000
20
235.00000
30
0.0
11
311.00000
21
235.00000
31
0.0
0
LINE
8
CUT_OUTER
10
351.00000
20
237.50000
30
0.0
11
351.00000
21
235.00000
31
0.0
0
LINE
8
CUT_OUTER
10
351.00000
20
237.50000
30
0.0
11
353.50000
21
240.00000
31
0.0
0
LINE
8
CUT_OUTER
10
383.50000
20
240.00000
30
0.0
11
353.50000
21
240.00000
31
0.0
0
LINE
8
CUT_OUTER
10
383.50000
20
240.00000
30
0.0
11
386.00000
21
237.50000
31
0.0
0
LINE
8
CUT_OUTER
10
386.00000
20
235.00000
30
0.0
11
386.00000
21
237.50000
31
0.0
0
LINE
8
CUT_OUTER
10
431.00000
20
235.00000
30
0.0
11
386.00000
21
235.00000
31
0.0
0
LINE
8
CUT_OUTER
10
431.00000
20
95.00000
30
0.0
11
431.00000
21
235.00000
31
0.0
0
LINE
8
CUT_OUTER
10
433.50000
20
95.00000
30
0.0
11
431.00000
21
95.00000
31
0.0
0
LINE
8
CUT_OUTER
10
433.50000
20
95.00000
30
0.0
11
436.00000
21
92.50000
31
0.0
0
LINE
8
CUT_OUTER
10
436.00000
20
47.50000
30
0.0
11
436.00000
21
92.50000
31
0.0
0
LINE
8
CUT_OUTER
10
436.00000
20
47.50000
30
0.0
11
433.50000
21
45.00000
31
0.0
0
LINE
8
CUT_OUTER
10
431.00000
20
45.00000
30
0.0
11
433.50000
21
45.00000
31
0.0
0
LINE
8
CUT_OUTER
10
431.00000
20
10.00000
30
0.0
11
431.00000
21
45.00000
31
0.0
0
LINE
8
CUT_OUTER
10
162.00000
20
10.00000
30
0.0
11
431.00000
21
10.00000
31
0.0
0
ARC
8
CUT_INNER
10
355.00000
20
122.50000
30
0.0
40
25.00000
50
0.00000
51
270.00000
0
ARC
8
CUT_INNER
10
355.00000
20
122.50000
30
0.0
40
25.00000
50
270.00000
51
0.00000
0
LINE
8
CUT_OUTER
10
1020.00000
20
174.50000
30
0.0
11
1210.00000
21
317.00000
31
0.0
0
ARC
8
CUT_OUTER
10
1219.00000
20
305.00000
30
0.0
40
15.00000
50
90.00000
51
126.86990
0
LINE
8
CUT_OUTER
10
1219.00000
20
320.00000
30
0.0
11
1264.00000
21
320.00000
31
0.0
0
LINE
8
CUT_OUTER
10
1264.00000
20
320.00000
30
0.0
11
1264.00000
21
922.00000
31
0.0
0
LINE
8
CUT_OUTER
10
1264.00000
20
922.00000
30
0.0
11
1414.50000
21
922.00000
31
0.0
0
LINE
8
CUT_OUTER
10
1414.50000
20
927.00000
30
0.0
11
1414.50000
21
922.00000
31
0.0
0
LINE
8
CUT_OUTER
10
1414.50000
20
927.00000
30
0.0
11
1417.50000
21
930.00000
31
0.0
0
LINE
8
CUT_OUTER
10
1461.50000
20
930.00000
30
0.0
11
1417.50000
21
930.00000
31
0.0
0
LINE
8
CUT_OUTER
10
1461.50000
20
930.00000
30
0.0
11
1464.50000
21
927.00000
31
0.0
0
LINE
8
CUT_OUTER
10
1464.50000
20
927.00000
30
0.0
11
1464.50000
21
922.00000
31
0.0
0
LINE
8
CUT_OUTER
10
1464.50000
20
922.00000
30
0.0
11
1763.50000
21
922.00000
31
0.0
0
LINE
8
CUT_OUTER
10
1763.50000
20
927.00000
30
0.0
11
1763.50000
21
922.00000
31
0.0
0
LINE
8
CUT_OUTER
10
1763.50000
20
927.00000
30
0.0
11
1766.50000
21
930.00000
31
0.0
0
LINE
8
CUT_OUTER
10
1810.50000
20
930.00000
30
0.0
11
1766.50000
21
930.00000
31
0.0
0
LINE
8
CUT_OUTER
10
1810.50000
20
930.00000
30
0.0
11
1813.50000
21
927.00000
31
0.0
0
LINE
8
CUT_OUTER
10
1813.50000
20
927.00000
30
0.0
11
1813.50000
21
922.00000
31
0.0
0
LINE
8
CUT_OUTER
10
1813.50000
20
922.00000
30
0.0
11
1964.00000
21
922.00000
31
0.0
0
LINE
8
CUT_OUTER
10
1964.00000
20
922.00000
30
0.0
11
1964.00000
21
858.00000
31
0.0
0
LINE
8
CUT_OUTER
10
1964.00000
20
858.00000
30
0.0
11
1962.50000
21
858.00000
31
0.0
0
LINE
8
CUT_OUTER
10
1962.50000
20
858.00000
30
0.0
11
1962.50000
21
818.00000
31
0.0
0
LINE
8
CUT_OUTER
10
1962.50000
20
818.00000
30
0.0
11
1964.00000
21
818.00000
31
0.0
0
LINE
8
CUT_OUTER
10
1964.00000
20
818.00000
30
0.0
11
1964.00000
21
608.00000
31
0.0
0
LINE
8
CUT_OUTER
10
1964.00000
20
608.00000
30
0.0
11
1962.50000
21
608.00000
31
0.0
0
LINE
8
CUT_OUTER
10
1962.50000
20
608.00000
30
0.0
11
1962.50000
21
568.00000
31
0.0
0
LINE
8
CUT_OUTER
10
1962.50000
20
568.00000
30
0.0
11
1964.00000
21
568.00000
31
0.0
0
LINE
8
CUT_OUTER
10
1964.00000
20
568.00000
30
0.0
11
1964.00000
21
358.00000
31
0.0
0
LINE
8
CUT_OUTER
10
1964.00000
20
358.00000
30
0.0
11
1962.50000
21
358.00000
31
0.0
0
LINE
8
CUT_OUTER
10
1962.50000
20
358.00000
30
0.0
11
1962.50000
21
318.00000
31
0.0
0
LINE
8
CUT_OUTER
10
1962.50000
20
318.00000
30
0.0
11
1964.00000
21
318.00000
31
0.0
0
LINE
8
CUT_OUTER
10
1964.00000
20
318.00000
30
0.0
11
1964.00000
21
245.00000
31
0.0
0
LINE
8
CUT_OUTER
10
1964.00000
20
245.00000
30
0.0
11
2111.00000
21
49.00000
31
0.0
0
ARC
8
CUT_OUTER
10
2099.00000
20
40.00000
30
0.0
40
15.00000
50
0.00000
51
36.86990
0
LINE
8
CUT_OUTER
10
2114.00000
20
40.00000
30
0.0
11
2114.00000
21
20.00000
31
0.0
0
LINE
8
CUT_OUTER
10
2114.00000
20
20.00000
30
0.0
11
2001.50000
21
20.00000
31
0.0
0
LINE
8
CUT_OUTER
10
2001.50000
20
20.00000
30
0.0
11
2001.50000
21
13.00000
31
0.0
0
LINE
8
CUT_OUTER
10
2001.50000
20
13.00000
30
0.0
11
1998.50000
21
10.00000
31
0.0
0
LINE
8
CUT_OUTER
10
1998.50000
20
10.00000
30
0.0
11
1954.50000
21
10.00000
31
0.0
0
LINE
8
CUT_OUTER
10
1954.50000
20
10.00000
30
0.0
11
1951.50000
21
13.00000
31
0.0
0
LINE
8
CUT_OUTER
10
1951.50000
20
13.00000
30
0.0
11
1951.50000
21
20.00000
31
0.0
0
LINE
8
CUT_OUTER
10
1951.50000
20
20.00000
30
0.0
11
1839.00000
21
20.00000
31
0.0
0
LINE
8
CUT_OUTER
10
1839.00000
20
20.00000
30
0.0
11
1839.00000
21
120.00000
31
0.0
0
LINE
8
CUT_OUTER
10
1839.00000
20
120.00000
30
0.0
11
1566.00000
21
120.00000
31
0.0
0
LINE
8
CUT_OUTER
10
1566.00000
20
124.00000
30
0.0
11
1566.00000
21
120.00000
31
0.0
0
LINE
8
CUT_OUTER
10
1515.00000
20
124.00000
30
0.0
11
1566.00000
21
124.00000
31
0.0
0
LINE
8
CUT_OUTER
10
1515.00000
20
120.00000
30
0.0
11
1515.00000
21
124.00000
31
0.0
0
LINE
8
CUT_OUTER
10
1515.00000
20
120.00000
30
0.0
11
1265.00000
21
120.00000
31
0.0
0
LINE
8
CUT_OUTER
10
1265.00000
20
124.00000
30
0.0
11
1265.00000
21
120.00000
31
0.0
0
LINE
8
CUT_OUTER
10
1214.00000
20
124.00000
30
0.0
11
1265.00000
21
124.00000
31
0.0
0
LINE
8
CUT_OUTER
10
1214.00000
20
120.00000
30
0.0
11
1214.00000
21
124.00000
31
0.0
0
LINE
8
CUT_OUTER
10
1214.00000
20
120.00000
30
0.0
11
1014.00000
21
120.00000
31
0.0
0
LINE
8
CUT_OUTER
10
1014.00000
20
120.00000
30
0.0
11
1014.00000
21
162.50000
31
0.0
0
ARC
8
CUT_OUTER
10
1029.00000
20
162.50000
30
0.0
40
15.00000
50
126.86990
51
180.00000
0
LINE
8
CUT_INNER
10
1283.50000
20
671.50000
30
0.0
11
1283.50000
21
722.50000
31
0.0
0
LINE
8
CUT_INNER
10
1289.50000
20
671.50000
30
0.0
11
1283.50000
21
671.50000
31
0.0
0
LINE
8
CUT_INNER
10
1289.50000
20
722.50000
30
0.0
11
1289.50000
21
671.50000
31
0.0
0
LINE
8
CUT_INNER
10
1283.50000
20
722.50000
30
0.0
11
1289.50000
21
722.50000
31
0.0
0
LINE
8
CUT_INNER
10
1283.50000
20
371.50000
30
0.0
11
1283.50000
21
422.50000
31
0.0
0
LINE
8
CUT_INNER
10
1289.50000
20
371.50000
30
0.0
11
1283.50000
21
371.50000
31
0.0
0
LINE
8
CUT_INNER
10
1289.50000
20
422.50000
30
0.0
11
1289.50000
21
371.50000
31
0.0
0
LINE
8
CUT_INNER
10
1283.50000
20
422.50000
30
0.0
11
1289.50000
21
422.50000
31
0.0
0
CIRCLE
8
CUT_INNER
10
1914.00000
20
50.00000
30
0.0
40
2.50000
0
CIRCLE
8
CUT_INNER
10
1974.00000
20
50.00000
30
0.0
40
2.50000
0
CIRCLE
8
CUT_INNER
10
2034.00000
20
50.00000
30
0.0
40
2.50000
0
CIRCLE
8
CUT_INNER
10
1920.00000
20
132.50000
30
0.0
40
16.00000
0
LINE
8
CUT_INNER
10
1838.50000
20
671.50000
30
0.0
11
1838.50000
21
722.50000
31
0.0
0
LINE
8
CUT_INNER
10
1844.50000
20
671.50000
30
0.0
11
1838.50000
21
671.50000
31
0.0
0
LINE
8
CUT_INNER
10
1844.50000
20
722.50000
30
0.0
11
1844.50000
21
671.50000
31
0.0
0
LINE
8
CUT_INNER
10
1838.50000
20
722.50000
30
0.0
11
1844.50000
21
722.50000
31
0.0
0
LINE
8
CUT_INNER
10
1838.50000
20
371.50000
30
0.0
11
1838.50000
21
422.50000
31
0.0
0
LINE
8
CUT_INNER
10
1844.50000
20
371.50000
30
0.0
11
1838.50000
21
371.50000
31
0.0
0
LINE
8
CUT_INNER
10
1844.50000
20
422.50000
30
0.0
11
1844.50000
21
371.50000
31
0.0
0
LINE
8
CUT_INNER
10
1838.50000
20
422.50000
30
0.0
11
1844.50000
21
422.50000
31
0.0
0
CIRCLE
8
CUT_INNER
10
1389.00000
20
295.00000
30
0.0
40
2.50000
0
CIRCLE
8
CUT_INNER
10
1489.00000
20
495.00000
30
0.0
40
2.50000
0
CIRCLE
8
CUT_INNER
10
1389.00000
20
495.00000
30
0.0
40
2.50000
0
CIRCLE
8
CUT_INNER
10
1489.00000
20
295.00000
30
0.0
40
2.50000
0
CIRCLE
8
CUT_INNER
10
1589.00000
20
295.00000
30
0.0
40
2.50000
0
CIRCLE
8
CUT_INNER
10
1689.00000
20
495.00000
30
0.0
40
2.50000
0
CIRCLE
8
CUT_INNER
10
1589.00000
20
495.00000
30
0.0
40
2.50000
0
CIRCLE
8
CUT_INNER
10
1689.00000
20
295.00000
30
0.0
40
2.50000
0
CIRCLE
8
CUT_INNER
10
1689.00000
20
395.00000
30
0.0
40
2.50000
0
CIRCLE
8
CUT_INNER
10
1589.00000
20
395.00000
30
0.0
40
2.50000
0
CIRCLE
8
CUT_INNER
10
1489.00000
20
395.00000
30
0.0
40
2.50000
0
CIRCLE
8
CUT_INNER
10
1389.00000
20
395.00000
30
0.0
40
2.50000
0
ARC
8
CUT_INNER
10
1899.00000
20
802.00000
30
0.0
40
10.50000
50
90.00000
51
180.00000
0
ARC
8
CUT_INNER
10
1899.00000
20
802.00000
30
0.0
40
10.50000
50
180.00000
51
90.00000
0
ARC
8
CUT_INNER
10
1899.00000
20
752.00000
30
0.0
40
8.50000
50
90.00000
51
180.00000
0
ARC
8
CUT_INNER
10
1899.00000
20
752.00000
30
0.0
40
8.50000
50
180.00000
51
90.00000
0
ARC
8
CUT_INNER
10
1899.00000
20
702.00000
30
0.0
40
8.50000
50
90.00000
51
180.00000
0
ARC
8
CUT_INNER
10
1899.00000
20
702.00000
30
0.0
40
8.50000
50
180.00000
51
90.00000
0
ARC
8
CUT_INNER
10
1899.00000
20
627.00000
30
0.0
40
10.50000
50
90.00000
51
180.00000
0
ARC
8
CUT_INNER
10
1899.00000
20
627.00000
30
0.0
40
10.50000
50
180.00000
51
90.00000
0
CIRCLE
8
CUT_INNER
10
1914.00000
20
872.00000
30
0.0
40
2.50000
0
LINE
8
CUT_OUTER
10
620.00000
20
993.00000
30
0.0
11
620.00000
21
948.00000
31
0.0
0
ARC
8
CUT_OUTER
10
635.00000
20
993.00000
30
0.0
40
15.00000
50
143.13010
51
180.00000
0
LINE
8
CUT_OUTER
10
765.50000
20
1192.00000
30
0.0
11
623.00000
21
1002.00000
31
0.0
0
ARC
8
CUT_OUTER
10
777.50000
20
1183.00000
30
0.0
40
15.00000
50
90.00000
51
143.13010
0
LINE
8
CUT_OUTER
10
820.00000
20
1198.00000
30
0.0
11
777.50000
21
1198.00000
31
0.0
0
LINE
8
CUT_OUTER
10
820.00000
20
998.00000
30
0.0
11
820.00000
21
1198.00000
31
0.0
0
LINE
8
CUT_OUTER
10
820.00000
20
998.00000
30
0.0
11
816.00000
21
998.00000
31
0.0
0
LINE
8
CUT_OUTER
10
816.00000
20
998.00000
30
0.0
11
816.00000
21
947.00000
31
0.0
0
LINE
8
CUT_OUTER
10
816.00000
20
947.00000
30
0.0
11
820.00000
21
947.00000
31
0.0
0
LINE
8
CUT_OUTER
10
820.00000
20
697.00000
30
0.0
11
820.00000
21
947.00000
31
0.0
0
LINE
8
CUT_OUTER
10
820.00000
20
697.00000
30
0.0
11
816.00000
21
697.00000
31
0.0
0
LINE
8
CUT_OUTER
10
816.00000
20
697.00000
30
0.0
11
816.00000
21
646.00000
31
0.0
0
LINE
8
CUT_OUTER
10
816.00000
20
646.00000
30
0.0
11
820.00000
21
646.00000
31
0.0
0
LINE
8
CUT_OUTER
10
820.00000
20
373.00000
30
0.0
11
820.00000
21
646.00000
31
0.0
0
LINE
8
CUT_OUTER
10
920.00000
20
373.00000
30
0.0
11
820.00000
21
373.00000
31
0.0
0
LINE
8
CUT_OUTER
10
920.00000
20
260.50000
30
0.0
11
920.00000
21
373.00000
31
0.0
0
LINE
8
CUT_OUTER
10
927.00000
20
260.50000
30
0.0
11
920.00000
21
260.50000
31
0.0
0
LINE
8
CUT_OUTER
10
927.00000
20
260.50000
30
0.0
11
930.00000
21
257.50000
31
0.0
0
LINE
8
CUT_OUTER
10
930.00000
20
213.50000
30
0.0
11
930.00000
21
257.50000
31
0.0
0
LINE
8
CUT_OUTER
10
930.00000
20
213.50000
30
0.0
11
927.00000
21
210.50000
31
0.0
0
LINE
8
CUT_OUTER
10
920.00000
20
210.50000
30
0.0
11
927.00000
21
210.50000
31
0.0
0
LINE
8
CUT_OUTER
10
920.00000
20
98.00000
30
0.0
11
920.00000
21
210.50000
31
0.0
0
LINE
8
CUT_OUTER
10
900.00000
20
98.00000
30
0.0
11
920.00000
21
98.00000
31
0.0
0
ARC
8
CUT_OUTER
10
900.00000
20
113.00000
30
0.0
40
15.00000
50
233.13010
51
270.00000
0
LINE
8
CUT_OUTER
10
695.00000
20
248.00000
30
0.0
11
891.00000
21
101.00000
31
0.0
0
LINE
8
CUT_OUTER
10
622.00000
20
248.00000
30
0.0
11
695.00000
21
248.00000
31
0.0
0
LINE
8
CUT_OUTER
10
622.00000
20
248.00000
30
0.0
11
622.00000
21
249.50000
31
0.0
0
LINE
8
CUT_OUTER
10
622.00000
20
249.50000
30
0.0
11
582.00000
21
249.50000
31
0.0
0
LINE
8
CUT_OUTER
10
582.00000
20
249.50000
30
0.0
11
582.00000
21
248.00000
31
0.0
0
LINE
8
CUT_OUTER
10
372.00000
20
248.00000
30
0.0
11
582.00000
21
248.00000
31
0.0
0
LINE
8
CUT_OUTER
10
372.00000
20
248.00000
30
0.0
11
372.00000
21
249.50000
31
0.0
0
LINE
8
CUT_OUTER
10
372.00000
20
249.50000
30
0.0
11
332.00000
21
249.50000
31
0.0
0
LINE
8
CUT_OUTER
10
332.00000
20
249.50000
30
0.0
11
332.00000
21
248.00000
31
0.0
0
LINE
8
CUT_OUTER
10
122.00000
20
248.00000
30
0.0
11
332.00000
21
248.00000
31
0.0
0
LINE
8
CUT_OUTER
10
122.00000
20
248.00000
30
0.0
11
122.00000
21
249.50000
31
0.0
0
LINE
8
CUT_OUTER
10
122.00000
20
249.50000
30
0.0
11
82.00000
21
249.50000
31
0.0
0
LINE
8
CUT_OUTER
10
82.00000
20
249.50000
30
0.0
11
82.00000
21
248.00000
31
0.0
0
LINE
8
CUT_OUTER
10
18.00000
20
248.00000
30
0.0
11
82.00000
21
248.00000
31
0.0
0
LINE
8
CUT_OUTER
10
18.00000
20
398.50000
30
0.0
11
18.00000
21
248.00000
31
0.0
0
LINE
8
CUT_OUTER
10
13.00000
20
398.50000
30
0.0
11
18.00000
21
398.50000
31
0.0
0
LINE
8
CUT_OUTER
10
13.00000
20
398.50000
30
0.0
11
10.00000
21
401.50000
31
0.0
0
LINE
8
CUT_OUTER
10
10.00000
20
445.50000
30
0.0
11
10.00000
21
401.50000
31
0.0
0
LINE
8
CUT_OUTER
10
10.00000
20
445.50000
30
0.0
11
13.00000
21
448.50000
31
0.0
0
LINE
8
CUT_OUTER
10
13.00000
20
448.50000
30
0.0
11
18.00000
21
448.50000
31
0.0
0
LINE
8
CUT_OUTER
10
18.00000
20
747.50000
30
0.0
11
18.00000
21
448.50000
31
0.0
0
LINE
8
CUT_OUTER
10
13.00000
20
747.50000
30
0.0
11
18.00000
21
747.50000
31
0.0
0
LINE
8
CUT_OUTER
10
13.00000
20
747.50000
30
0.0
11
10.00000
21
750.50000
31
0.0
0
LINE
8
CUT_OUTER
10
10.00000
20
794.50000
30
0.0
11
10.00000
21
750.50000
31
0.0
0
LINE
8
CUT_OUTER
10
10.00000
20
794.50000
30
0.0
11
13.00000
21
797.50000
31
0.0
0
LINE
8
CUT_OUTER
10
13.00000
20
797.50000
30
0.0
11
18.00000
21
797.50000
31
0.0
0
LINE
8
CUT_OUTER
10
18.00000
20
948.00000
30
0.0
11
18.00000
21
797.50000
31
0.0
0
LINE
8
CUT_OUTER
10
620.00000
20
948.00000
30
0.0
11
18.00000
21
948.00000
31
0.0
0
LINE
8
CUT_INNER
10
268.50000
20
367.50000
30
0.0
11
268.50000
21
373.50000
31
0.0
0
LINE
8
CUT_INNER
10
268.50000
20
373.50000
30
0.0
11
217.50000
21
373.50000
31
0.0
0
LINE
8
CUT_INNER
10
217.50000
20
373.50000
30
0.0
11
217.50000
21
367.50000
31
0.0
0
LINE
8
CUT_INNER
10
217.50000
20
367.50000
30
0.0
11
268.50000
21
367.50000
31
0.0
0
LINE
8
CUT_INNER
10
568.50000
20
367.50000
30
0.0
11
568.50000
21
373.50000
31
0.0
0
LINE
8
CUT_INNER
10
568.50000
20
373.50000
30
0.0
11
517.50000
21
373.50000
31
0.0
0
LINE
8
CUT_INNER
10
517.50000
20
373.50000
30
0.0
11
517.50000
21
367.50000
31
0.0
0
LINE
8
CUT_INNER
10
517.50000
20
367.50000
30
0.0
11
568.50000
21
367.50000
31
0.0
0
CIRCLE
8
CUT_INNER
10
445.00000
20
623.00000
30
0.0
40
2.50000
0
CIRCLE
8
CUT_INNER
10
545.00000
20
623.00000
30
0.0
40
2.50000
0
CIRCLE
8
CUT_INNER
10
138.00000
20
313.00000
30
0.0
40
10.50000
0
CIRCLE
8
CUT_INNER
10
188.00000
20
313.00000
30
0.0
40
8.50000
0
CIRCLE
8
CUT_INNER
10
238.00000
20
313.00000
30
0.0
40
8.50000
0
CIRCLE
8
CUT_INNER
10
313.00000
20
313.00000
30
0.0
40
10.50000
0
CIRCLE
8
CUT_INNER
10
890.00000
20
178.00000
30
0.0
40
2.50000
0
CIRCLE
8
CUT_INNER
10
890.00000
20
238.00000
30
0.0
40
2.50000
0
CIRCLE
8
CUT_INNER
10
890.00000
20
298.00000
30
0.0
40
2.50000
0
CIRCLE
8
CUT_INNER
10
645.00000
20
523.00000
30
0.0
40
2.50000
0
CIRCLE
8
CUT_INNER
10
545.00000
20
523.00000
30
0.0
40
2.50000
0
CIRCLE
8
CUT_INNER
10
645.00000
20
623.00000
30
0.0
40
2.50000
0
CIRCLE
8
CUT_INNER
10
645.00000
20
723.00000
30
0.0
40
2.50000
0
CIRCLE
8
CUT_INNER
10
545.00000
20
823.00000
30
0.0
40
2.50000
0
CIRCLE
8
CUT_INNER
10
545.00000
20
723.00000
30
0.0
40
2.50000
0
CIRCLE
8
CUT_INNER
10
645.00000
20
823.00000
30
0.0
40
2.50000
0
CIRCLE
8
CUT_INNER
10
445.00000
20
523.00000
30
0.0
40
2.50000
0
CIRCLE
8
CUT_INNER
10
445.00000
20
723.00000
30
0.0
40
2.50000
0
CIRCLE
8
CUT_INNER
10
445.00000
20
823.00000
30
0.0
40
2.50000
0
LINE
8
CUT_INNER
10
268.50000
20
922.50000
30
0.0
11
268.50000
21
928.50000
31
0.0
0
LINE
8
CUT_INNER
10
268.50000
20
928.50000
30
0.0
11
217.50000
21
928.50000
31
0.0
0
LINE
8
CUT_INNER
10
217.50000
20
928.50000
30
0.0
11
217.50000
21
922.50000
31
0.0
0
LINE
8
CUT_INNER
10
217.50000
20
922.50000
30
0.0
11
268.50000
21
922.50000
31
0.0
0
LINE
8
CUT_INNER
10
568.50000
20
922.50000
30
0.0
11
568.50000
21
928.50000
31
0.0
0
LINE
8
CUT_INNER
10
568.50000
20
928.50000
30
0.0
11
517.50000
21
928.50000
31
0.0
0
LINE
8
CUT_INNER
10
517.50000
20
928.50000
30
0.0
11
517.50000
21
922.50000
31
0.0
0
LINE
8
CUT_INNER
10
517.50000
20
922.50000
30
0.0
11
568.50000
21
922.50000
31
0.0
0
CIRCLE
8
CUT_INNER
10
807.50000
20
292.00000
30
0.0
40
16.00000
0
LINE
8
CUT_OUTER
10
1972.00000
20
639.50000
30
0.0
11
1972.00000
21
594.50000
31
0.0
0
LINE
8
CUT_OUTER
10
1972.00000
20
639.50000
30
0.0
11
1974.50000
21
642.00000
31
0.0
0
LINE
8
CUT_OUTER
10
1977.00000
20
642.00000
30
0.0
11
1974.50000
21
642.00000
31
0.0
0
LINE
8
CUT_OUTER
10
1977.00000
20
642.00000
30
0.0
11
1977.00000
21
892.00000
31
0.0
0
LINE
8
CUT_OUTER
10
1974.50000
20
892.00000
30
0.0
11
1977.00000
21
892.00000
31
0.0
0
LINE
8
CUT_OUTER
10
1974.50000
20
892.00000
30
0.0
11
1972.00000
21
894.50000
31
0.0
0
LINE
8
CUT_OUTER
10
1972.00000
20
939.50000
30
0.0
11
1972.00000
21
894.50000
31
0.0
0
LINE
8
CUT_OUTER
10
1972.00000
20
939.50000
30
0.0
11
1974.50000
21
942.00000
31
0.0
0
LINE
8
CUT_OUTER
10
1977.00000
20
942.00000
30
0.0
11
1974.50000
21
942.00000
31
0.0
0
LINE
8
CUT_OUTER
10
1977.00000
20
942.00000
30
0.0
11
1977.00000
21
1142.00000
31
0.0
0
LINE
8
CUT_OUTER
10
1977.00000
20
1142.00000
30
0.0
11
2159.50000
21
1142.00000
31
0.0
0
LINE
8
CUT_OUTER
10
2159.50000
20
1147.00000
30
0.0
11
2159.50000
21
1142.00000
31
0.0
0
LINE
8
CUT_OUTER
10
2159.50000
20
1147.00000
30
0.0
11
2162.50000
21
1150.00000
31
0.0
0
LINE
8
CUT_OUTER
10
2206.50000
20
1150.00000
30
0.0
11
2162.50000
21
1150.00000
31
0.0
0
LINE
8
CUT_OUTER
10
2206.50000
20
1150.00000
30
0.0
11
2209.50000
21
1147.00000
31
0.0
0
LINE
8
CUT_OUTER
10
2209.50000
20
1142.00000
30
0.0
11
2209.50000
21
1147.00000
31
0.0
0
LINE
8
CUT_OUTER
10
2209.50000
20
1142.00000
30
0.0
11
2392.00000
21
1142.00000
31
0.0
0
LINE
8
CUT_OUTER
10
2392.00000
20
1142.00000
30
0.0
11
2392.00000
21
942.00000
31
0.0
0
LINE
8
CUT_OUTER
10
2394.50000
20
942.00000
30
0.0
11
2392.00000
21
942.00000
31
0.0
0
LINE
8
CUT_OUTER
10
2394.50000
20
942.00000
30
0.0
11
2397.00000
21
939.50000
31
0.0
0
LINE
8
CUT_OUTER
10
2397.00000
20
894.50000
30
0.0
11
2397.00000
21
939.50000
31
0.0
0
LINE
8
CUT_OUTER
10
2397.00000
20
894.50000
30
0.0
11
2394.50000
21
892.00000
31
0.0
0
LINE
8
CUT_OUTER
10
2392.00000
20
892.00000
30
0.0
11
2394.50000
21
892.00000
31
0.0
0
LINE
8
CUT_OUTER
10
2392.00000
20
892.00000
30
0.0
11
2392.00000
21
642.00000
31
0.0
0
LINE
8
CUT_OUTER
10
2394.50000
20
642.00000
30
0.0
11
2392.00000
21
642.00000
31
0.0
0
LINE
8
CUT_OUTER
10
2394.50000
20
642.00000
30
0.0
11
2397.00000
21
639.50000
31
0.0
0
LINE
8
CUT_OUTER
10
2397.00000
20
594.50000
30
0.0
11
2397.00000
21
639.50000
31
0.0
0
LINE
8
CUT_OUTER
10
2397.00000
20
594.50000
30
0.0
11
2394.50000
21
592.00000
31
0.0
0
LINE
8
CUT_OUTER
10
2392.00000
20
592.00000
30
0.0
11
2394.50000
21
592.00000
31
0.0
0
LINE
8
CUT_OUTER
10
2392.00000
20
592.00000
30
0.0
11
2392.00000
21
240.00000
31
0.0
0
LINE
8
CUT_OUTER
10
2392.00000
20
240.00000
30
0.0
11
2209.50000
21
240.00000
31
0.0
0
LINE
8
CUT_OUTER
10
2209.50000
20
233.00000
30
0.0
11
2209.50000
21
240.00000
31
0.0
0
LINE
8
CUT_OUTER
10
2209.50000
20
233.00000
30
0.0
11
2206.50000
21
230.00000
31
0.0
0
LINE
8
CUT_OUTER
10
2162.50000
20
230.00000
30
0.0
11
2206.50000
21
230.00000
31
0.0
0
LINE
8
CUT_OUTER
10
2162.50000
20
230.00000
30
0.0
11
2159.50000
21
233.00000
31
0.0
0
LINE
8
CUT_OUTER
10
2159.50000
20
240.00000
30
0.0
11
2159.50000
21
233.00000
31
0.0
0
LINE
8
CUT_OUTER
10
2159.50000
20
240.00000
30
0.0
11
1977.00000
21
240.00000
31
0.0
0
LINE
8
CUT_OUTER
10
1977.00000
20
240.00000
30
0.0
11
1977.00000
21
592.00000
31
0.0
0
LINE
8
CUT_OUTER
10
1974.50000
20
592.00000
30
0.0
11
1977.00000
21
592.00000
31
0.0
0
LINE
8
CUT_OUTER
10
1974.50000
20
592.00000
30
0.0
11
1972.00000
21
594.50000
31
0.0
0
ARC
8
CUT_INNER
10
1997.00000
20
497.50000
30
0.0
40
1.65000
50
270.00000
51
90.00000
0
ARC
8
CUT_INNER
10
1997.00000
20
497.50000
30
0.0
40
1.65000
50
90.00000
51
270.00000
0
ARC
8
CUT_INNER
10
2372.00000
20
497.50000
30
0.0
40
1.65000
50
270.00000
51
90.00000
0
ARC
8
CUT_INNER
10
2372.00000
20
497.50000
30
0.0
40
1.65000
50
90.00000
51
270.00000
0
ARC
8
CUT_INNER
10
2002.00000
20
550.00000
30
0.0
40
1.65000
50
270.00000
51
90.00000
0
ARC
8
CUT_INNER
10
2002.00000
20
550.00000
30
0.0
40
1.65000
50
90.00000
51
270.00000
0
ARC
8
CUT_INNER
10
2367.00000
20
550.00000
30
0.0
40
1.65000
50
270.00000
51
90.00000
0
ARC
8
CUT_INNER
10
2367.00000
20
550.00000
30
0.0
40
1.65000
50
90.00000
51
270.00000
0
ARC
8
CUT_INNER
10
2367.00000
20
800.00000
30
0.0
40
1.65000
50
270.00000
51
90.00000
0
ARC
8
CUT_INNER
10
2367.00000
20
800.00000
30
0.0
40
1.65000
50
90.00000
51
270.00000
0
ARC
8
CUT_INNER
10
2002.00000
20
800.00000
30
0.0
40
1.65000
50
270.00000
51
90.00000
0
ARC
8
CUT_INNER
10
2002.00000
20
800.00000
30
0.0
40
1.65000
50
90.00000
51
270.00000
0
ARC
8
CUT_INNER
10
2072.00000
20
497.50000
30
0.0
40
2.10000
50
270.00000
51
90.00000
0
ARC
8
CUT_INNER
10
2072.00000
20
497.50000
30
0.0
40
2.10000
50
90.00000
51
270.00000
0
ARC
8
CUT_INNER
10
2147.00000
20
497.50000
30
0.0
40
2.10000
50
270.00000
51
90.00000
0
ARC
8
CUT_INNER
10
2147.00000
20
497.50000
30
0.0
40
2.10000
50
90.00000
51
270.00000
0
ARC
8
CUT_INNER
10
2222.00000
20
497.50000
30
0.0
40
2.10000
50
270.00000
51
90.00000
0
ARC
8
CUT_INNER
10
2222.00000
20
497.50000
30
0.0
40
2.10000
50
90.00000
51
270.00000
0
ARC
8
CUT_INNER
10
2002.00000
20
600.00000
30
0.0
40
2.10000
50
270.00000
51
90.00000
0
ARC
8
CUT_INNER
10
2002.00000
20
600.00000
30
0.0
40
2.10000
50
90.00000
51
270.00000
0
ARC
8
CUT_INNER
10
2002.00000
20
675.00000
30
0.0
40
2.10000
50
270.00000
51
90.00000
0
ARC
8
CUT_INNER
10
2002.00000
20
675.00000
30
0.0
40
2.10000
50
90.00000
51
270.00000
0
ARC
8
CUT_INNER
10
2002.00000
20
750.00000
30
0.0
40
2.10000
50
270.00000
51
90.00000
0
ARC
8
CUT_INNER
10
2002.00000
20
750.00000
30
0.0
40
2.10000
50
90.00000
51
270.00000
0
ARC
8
CUT_INNER
10
2367.00000
20
750.00000
30
0.0
40
2.10000
50
270.00000
51
90.00000
0
ARC
8
CUT_INNER
10
2367.00000
20
750.00000
30
0.0
40
2.10000
50
90.00000
51
270.00000
0
ARC
8
CUT_INNER
10
2367.00000
20
675.00000
30
0.0
40
2.10000
50
270.00000
51
90.00000
0
ARC
8
CUT_INNER
10
2367.00000
20
675.00000
30
0.0
40
2.10000
50
90.00000
51
270.00000
0
ARC
8
CUT_INNER
10
2367.00000
20
600.00000
30
0.0
40
2.10000
50
270.00000
51
90.00000
0
ARC
8
CUT_INNER
10
2367.00000
20
600.00000
30
0.0
40
2.10000
50
90.00000
51
270.00000
0
ARC
8
CUT_INNER
10
2297.00000
20
497.50000
30
0.0
40
2.10000
50
270.00000
51
90.00000
0
ARC
8
CUT_INNER
10
2297.00000
20
497.50000
30
0.0
40
2.10000
50
90.00000
51
270.00000
0
ARC
8
CUT_INNER
10
2184.50000
20
977.00000
30
0.0
40
2.10000
50
90.00000
51
270.00000
0
ARC
8
CUT_INNER
10
2184.50000
20
977.00000
30
0.0
40
2.10000
50
270.00000
51
90.00000
0
ARC
8
CUT_INNER
10
2184.50000
20
1027.00000
30
0.0
40
2.10000
50
90.00000
51
270.00000
0
ARC
8
CUT_INNER
10
2184.50000
20
1027.00000
30
0.0
40
2.10000
50
270.00000
51
90.00000
0
ARC
8
CUT_INNER
10
2212.00000
20
576.00000
30
0.0
40
1.65000
50
90.00000
51
270.00000
0
ARC
8
CUT_INNER
10
2212.00000
20
576.00000
30
0.0
40
1.65000
50
270.00000
51
90.00000
0
ARC
8
CUT_INNER
10
2177.00000
20
576.00000
30
0.0
40
1.65000
50
90.00000
51
270.00000
0
ARC
8
CUT_INNER
10
2177.00000
20
576.00000
30
0.0
40
1.65000
50
270.00000
51
90.00000
0
ARC
8
CUT_INNER
10
2142.00000
20
576.00000
30
0.0
40
1.65000
50
90.00000
51
270.00000
0
ARC
8
CUT_INNER
10
2142.00000
20
576.00000
30
0.0
40
1.65000
50
270.00000
51
90.00000
0
ARC
8
CUT_INNER
10
2247.00000
20
576.00000
30
0.0
40
1.65000
50
90.00000
51
270.00000
0
ARC
8
CUT_INNER
10
2247.00000
20
576.00000
30
0.0
40
1.65000
50
270.00000
51
90.00000
0
ARC
8
CUT_INNER
10
2319.00000
20
746.00000
30
0.0
40
1.65000
50
90.00000
51
270.00000
0
ARC
8
CUT_INNER
10
2319.00000
20
746.00000
30
0.0
40
1.65000
50
270.00000
51
90.00000
0
ARC
8
CUT_INNER
10
2319.00000
20
731.00000
30
0.0
40
1.65000
50
90.00000
51
270.00000
0
ARC
8
CUT_INNER
10
2319.00000
20
731.00000
30
0.0
40
1.65000
50
270.00000
51
90.00000
0
ARC
8
CUT_INNER
10
2050.00000
20
731.00000
30
0.0
40
1.65000
50
90.00000
51
270.00000
0
ARC
8
CUT_INNER
10
2050.00000
20
731.00000
30
0.0
40
1.65000
50
270.00000
51
90.00000
0
ARC
8
CUT_INNER
10
2050.00000
20
746.00000
30
0.0
40
1.65000
50
90.00000
51
270.00000
0
ARC
8
CUT_INNER
10
2050.00000
20
746.00000
30
0.0
40
1.65000
50
270.00000
51
90.00000
0
LINE
8
CUT_INNER
10
2285.00000
20
464.50000
30
0.0
11
2285.00000
21
470.50000
31
0.0
0
LINE
8
CUT_INNER
10
2285.00000
20
470.50000
30
0.0
11
2234.00000
21
470.50000
31
0.0
0
LINE
8
CUT_INNER
10
2234.00000
20
470.50000
30
0.0
11
2234.00000
21
464.50000
31
0.0
0
LINE
8
CUT_INNER
10
2234.00000
20
464.50000
30
0.0
11
2285.00000
21
464.50000
31
0.0
0
LINE
8
CUT_INNER
10
2135.00000
20
464.50000
30
0.0
11
2135.00000
21
470.50000
31
0.0
0
LINE
8
CUT_INNER
10
2135.00000
20
470.50000
30
0.0
11
2084.00000
21
470.50000
31
0.0
0
LINE
8
CUT_INNER
10
2084.00000
20
470.50000
30
0.0
11
2084.00000
21
464.50000
31
0.0
0
LINE
8
CUT_INNER
10
2084.00000
20
464.50000
30
0.0
11
2135.00000
21
464.50000
31
0.0
0
LINE
8
CUT_INNER
10
2102.50000
20
274.50000
30
0.0
11
2102.50000
21
325.50000
31
0.0
0
LINE
8
CUT_INNER
10
2108.50000
20
274.50000
30
0.0
11
2102.50000
21
274.50000
31
0.0
0
LINE
8
CUT_INNER
10
2108.50000
20
325.50000
30
0.0
11
2108.50000
21
274.50000
31
0.0
0
LINE
8
CUT_INNER
10
2102.50000
20
325.50000
30
0.0
11
2108.50000
21
325.50000
31
0.0
0
LINE
8
CUT_INNER
10
2260.50000
20
274.50000
30
0.0
11
2260.50000
21
325.50000
31
0.0
0
LINE
8
CUT_INNER
10
2266.50000
20
274.50000
30
0.0
11
2260.50000
21
274.50000
31
0.0
0
LINE
8
CUT_INNER
10
2266.50000
20
325.50000
30
0.0
11
2266.50000
21
274.50000
31
0.0
0
LINE
8
CUT_INNER
10
2260.50000
20
325.50000
30
0.0
11
2266.50000
21
325.50000
31
0.0
0
LINE
8
CUT_OUTER
10
317.50000
20
958.50000
30
0.0
11
317.50000
21
961.00000
31
0.0
0
LINE
8
CUT_OUTER
10
317.50000
20
958.50000
30
0.0
11
315.00000
21
956.00000
31
0.0
0
LINE
8
CUT_OUTER
10
270.00000
20
956.00000
30
0.0
11
315.00000
21
956.00000
31
0.0
0
LINE
8
CUT_OUTER
10
270.00000
20
956.00000
30
0.0
11
267.50000
21
958.50000
31
0.0
0
LINE
8
CUT_OUTER
10
267.50000
20
961.00000
30
0.0
11
267.50000
21
958.50000
31
0.0
0
LINE
8
CUT_OUTER
10
167.50000
20
961.00000
30
0.0
11
267.50000
21
961.00000
31
0.0
0
LINE
8
CUT_OUTER
10
167.50000
20
958.50000
30
0.0
11
167.50000
21
961.00000
31
0.0
0
LINE
8
CUT_OUTER
10
167.50000
20
958.50000
30
0.0
11
165.00000
21
956.00000
31
0.0
0
LINE
8
CUT_OUTER
10
120.00000
20
956.00000
30
0.0
11
165.00000
21
956.00000
31
0.0
0
LINE
8
CUT_OUTER
10
120.00000
20
956.00000
30
0.0
11
117.50000
21
958.50000
31
0.0
0
LINE
8
CUT_OUTER
10
117.50000
20
961.00000
30
0.0
11
117.50000
21
958.50000
31
0.0
0
LINE
8
CUT_OUTER
10
10.00000
20
961.00000
30
0.0
11
117.50000
21
961.00000
31
0.0
0
LINE
8
CUT_OUTER
10
10.00000
20
1081.00000
30
0.0
11
10.00000
21
961.00000
31
0.0
0
LINE
8
CUT_OUTER
10
425.00000
20
1081.00000
30
0.0
11
10.00000
21
1081.00000
31
0.0
0
LINE
8
CUT_OUTER
10
425.00000
20
961.00000
30
0.0
11
425.00000
21
1081.00000
31
0.0
0
LINE
8
CUT_OUTER
10
317.50000
20
961.00000
30
0.0
11
425.00000
21
961.00000
31
0.0
0
ARC
8
CUT_INNER
10
57.50000
20
1016.00000
30
0.0
40
20.00000
50
180.00000
51
90.00000
0
ARC
8
CUT_INNER
10
57.50000
20
1016.00000
30
0.0
40
20.00000
50
90.00000
51
180.00000
0
ARC
8
CUT_INNER
10
377.50000
20
1016.00000
30
0.0
40
20.00000
50
180.00000
51
90.00000
0
ARC
8
CUT_INNER
10
377.50000
20
1016.00000
30
0.0
40
20.00000
50
90.00000
51
180.00000
0
ARC
8
CUT_INNER
10
217.50000
20
1016.00000
30
0.0
40
20.00000
50
180.00000
51
90.00000
0
ARC
8
CUT_INNER
10
217.50000
20
1016.00000
30
0.0
40
20.00000
50
90.00000
51
180.00000
0
LINE
8
CUT_INNER
10
135.50000
20
1042.50000
30
0.0
11
141.50000
21
1042.50000
31
0.0
0
LINE
8
CUT_INNER
10
135.50000
20
1006.50000
30
0.0
11
135.50000
21
1042.50000
31
0.0
0
LINE
8
CUT_INNER
10
141.50000
20
1006.50000
30
0.0
11
135.50000
21
1006.50000
31
0.0
0
LINE
8
CUT_INNER
10
141.50000
20
1042.50000
30
0.0
11
141.50000
21
1006.50000
31
0.0
0
LINE
8
CUT_INNER
10
293.50000
20
1042.50000
30
0.0
11
299.50000
21
1042.50000
31
0.0
0
LINE
8
CUT_INNER
10
293.50000
20
1006.50000
30
0.0
11
293.50000
21
1042.50000
31
0.0
0
LINE
8
CUT_INNER
10
299.50000
20
1006.50000
30
0.0
11
293.50000
21
1006.50000
31
0.0
0
LINE
8
CUT_INNER
10
299.50000
20
1042.50000
30
0.0
11
299.50000
21
1006.50000
31
0.0
0
LINE
8
CUT_OUTER
10
284.00000
20
219.97328
30
0.0
11
284.00000
21
240.00000
31
0.0
0
ARC
8
CUT_OUTER
10
269.00000
20
219.97328
30
0.0
40
15.00000
50
323.31389
51
0.00000
0
LINE
8
CUT_OUTER
10
135.00000
20
15.00000
30
0.0
11
281.02881
21
211.01182
31
0.0
0
LINE
8
CUT_OUTER
10
95.00000
20
15.00000
30
0.0
11
135.00000
21
15.00000
31
0.0
0
LINE
8
CUT_OUTER
10
95.00000
20
12.50000
30
0.0
11
95.00000
21
15.00000
31
0.0
0
LINE
8
CUT_OUTER
10
95.00000
20
12.50000
30
0.0
11
92.50000
21
10.00000
31
0.0
0
LINE
8
CUT_OUTER
10
62.50000
20
10.00000
30
0.0
11
92.50000
21
10.00000
31
0.0
0
LINE
8
CUT_OUTER
10
62.50000
20
10.00000
30
0.0
11
60.00000
21
12.50000
31
0.0
0
LINE
8
CUT_OUTER
10
60.00000
20
15.00000
30
0.0
11
60.00000
21
12.50000
31
0.0
0
LINE
8
CUT_OUTER
10
15.00000
20
15.00000
30
0.0
11
60.00000
21
15.00000
31
0.0
0
LINE
8
CUT_OUTER
10
15.00000
20
155.00000
30
0.0
11
15.00000
21
15.00000
31
0.0
0
LINE
8
CUT_OUTER
10
12.50000
20
155.00000
30
0.0
11
15.00000
21
155.00000
31
0.0
0
LINE
8
CUT_OUTER
10
12.50000
20
155.00000
30
0.0
11
10.00000
21
157.50000
31
0.0
0
LINE
8
CUT_OUTER
10
10.00000
20
202.50000
30
0.0
11
10.00000
21
157.50000
31
0.0
0
LINE
8
CUT_OUTER
10
10.00000
20
202.50000
30
0.0
11
12.50000
21
205.00000
31
0.0
0
LINE
8
CUT_OUTER
10
15.00000
20
205.00000
30
0.0
11
12.50000
21
205.00000
31
0.0
0
LINE
8
CUT_OUTER
10
15.00000
20
240.00000
30
0.0
11
15.00000
21
205.00000
31
0.0
0
LINE
8
CUT_OUTER
10
284.00000
20
240.00000
30
0.0
11
15.00000
21
240.00000
31
0.0
0
ARC
8
CUT_INNER
10
91.00000
20
127.50000
30
0.0
40
25.00000
50
180.00000
51
90.00000
0
ARC
8
CUT_INNER
10
91.00000
20
127.50000
30
0.0
40
25.00000
50
90.00000
51
180.00000
0
LINE
8
CUT_OUTER
10
833.00000
20
946.00000
30
0.0
11
830.50000
21
946.00000
31
0.0
0
LINE
8
CUT_OUTER
10
830.50000
20
946.00000
30
0.0
11
828.00000
21
948.50000
31
0.0
0
LINE
8
CUT_OUTER
10
828.00000
20
948.50000
30
0.0
11
828.00000
21
993.50000
31
0.0
0
LINE
8
CUT_OUTER
10
828.00000
20
993.50000
30
0.0
11
830.50000
21
996.00000
31
0.0
0
LINE
8
CUT_OUTER
10
830.50000
20
996.00000
30
0.0
11
833.00000
21
996.00000
31
0.0
0
LINE
8
CUT_OUTER
10
833.00000
20
1196.00000
30
0.0
11
833.00000
21
996.00000
31
0.0
0
LINE
8
CUT_OUTER
10
940.50000
20
1196.00000
30
0.0
11
833.00000
21
1196.00000
31
0.0
0
LINE
8
CUT_OUTER
10
940.50000
20
1201.50000
30
0.0
11
940.50000
21
1196.00000
31
0.0
0
LINE
8
CUT_OUTER
10
940.50000
20
1201.50000
30
0.0
11
943.00000
21
1204.00000
31
0.0
0
LINE
8
CUT_OUTER
10
988.00000
20
1204.00000
30
0.0
11
943.00000
21
1204.00000
31
0.0
0
LINE
8
CUT_OUTER
10
988.00000
20
1204.00000
30
0.0
11
990.50000
21
1201.50000
31
0.0
0
LINE
8
CUT_OUTER
10
990.50000
20
1196.00000
30
0.0
11
990.50000
21
1201.50000
31
0.0
0
LINE
8
CUT_OUTER
10
1090.50000
20
1196.00000
30
0.0
11
990.50000
21
1196.00000
31
0.0
0
LINE
8
CUT_OUTER
10
1090.50000
20
1201.50000
30
0.0
11
1090.50000
21
1196.00000
31
0.0
0
LINE
8
CUT_OUTER
10
1090.50000
20
1201.50000
30
0.0
11
1093.00000
21
1204.00000
31
0.0
0
LINE
8
CUT_OUTER
10
1138.00000
20
1204.00000
30
0.0
11
1093.00000
21
1204.00000
31
0.0
0
LINE
8
CUT_OUTER
10
1138.00000
20
1204.00000
30
0.0
11
1140.50000
21
1201.50000
31
0.0
0
LINE
8
CUT_OUTER
10
1140.50000
20
1196.00000
30
0.0
11
1140.50000
21
1201.50000
31
0.0
0
LINE
8
CUT_OUTER
10
1248.00000
20
1196.00000
30
0.0
11
1140.50000
21
1196.00000
31
0.0
0
LINE
8
CUT_OUTER
10
1248.00000
20
996.00000
30
0.0
11
1248.00000
21
1196.00000
31
0.0
0
LINE
8
CUT_OUTER
10
1248.00000
20
996.00000
30
0.0
11
1250.50000
21
996.00000
31
0.0
0
LINE
8
CUT_OUTER
10
1250.50000
20
996.00000
30
0.0
11
1253.00000
21
993.50000
31
0.0
0
LINE
8
CUT_OUTER
10
1253.00000
20
993.50000
30
0.0
11
1253.00000
21
948.50000
31
0.0
0
LINE
8
CUT_OUTER
10
1253.00000
20
948.50000
30
0.0
11
1250.50000
21
946.00000
31
0.0
0
LINE
8
CUT_OUTER
10
1250.50000
20
946.00000
30
0.0
11
1248.00000
21
946.00000
31
0.0
0
LINE
8
CUT_OUTER
10
1248.00000
20
696.00000
30
0.0
11
1248.00000
21
946.00000
31
0.0
0
LINE
8
CUT_OUTER
10
1248.00000
20
696.00000
30
0.0
11
1250.50000
21
696.00000
31
0.0
0
LINE
8
CUT_OUTER
10
1250.50000
20
696.00000
30
0.0
11
1253.00000
21
693.50000
31
0.0
0
LINE
8
CUT_OUTER
10
1253.00000
20
693.50000
30
0.0
11
1253.00000
21
648.50000
31
0.0
0
LINE
8
CUT_OUTER
10
1253.00000
20
648.50000
30
0.0
11
1250.50000
21
646.00000
31
0.0
0
LINE
8
CUT_OUTER
10
1250.50000
20
646.00000
30
0.0
11
1248.00000
21
646.00000
31
0.0
0
LINE
8
CUT_OUTER
10
1248.00000
20
398.00000
30
0.0
11
1248.00000
21
646.00000
31
0.0
0
LINE
8
CUT_OUTER
10
833.00000
20
398.00000
30
0.0
11
1248.00000
21
398.00000
31
0.0
0
LINE
8
CUT_OUTER
10
833.00000
20
646.00000
30
0.0
11
833.00000
21
398.00000
31
0.0
0
LINE
8
CUT_OUTER
10
833.00000
20
646.00000
30
0.0
11
830.50000
21
646.00000
31
0.0
0
LINE
8
CUT_OUTER
10
830.50000
20
646.00000
30
0.0
11
828.00000
21
648.50000
31
0.0
0
LINE
8
CUT_OUTER
10
828.00000
20
648.50000
30
0.0
11
828.00000
21
693.50000
31
0.0
0
LINE
8
CUT_OUTER
10
828.00000
20
693.50000
30
0.0
11
830.50000
21
696.00000
31
0.0
0
LINE
8
CUT_OUTER
10
830.50000
20
696.00000
30
0.0
11
833.00000
21
696.00000
31
0.0
0
LINE
8
CUT_OUTER
10
833.00000
20
946.00000
30
0.0
11
833.00000
21
696.00000
31
0.0
0
ENDSEC
0
EOF
